<svg width="572" height="600" viewBox="0 0 572 600" fill="none" xmlns="http://www.w3.org/2000/svg">
<g clip-path="url(#clip0_12_12)">
<path d="M490.326 554.088C380.948 614.679 203.618 614.679 94.2402 554.088C-15.1373 493.496 -15.1373 395.269 94.2402 334.678C203.618 274.086 380.948 274.101 490.326 334.678C599.703 395.255 599.703 493.496 490.326 554.088Z" fill="#00033D"/>
<path d="M239.317 472.848L331.479 525.679C332.436 526.166 333.495 526.421 334.569 526.421C335.643 526.421 336.702 526.166 337.659 525.679L528.147 415.689C528.519 415.563 528.842 415.323 529.071 415.004C529.3 414.685 529.423 414.302 529.423 413.909C529.423 413.516 529.3 413.133 529.071 412.814C528.842 412.495 528.519 412.255 528.147 412.129L429.962 355.71C429.011 355.229 427.957 354.986 426.89 355.001C425.824 355.015 424.777 355.288 423.839 355.796L239.26 469.217C238.892 469.36 238.576 469.613 238.355 469.941C238.134 470.269 238.019 470.657 238.026 471.053C238.032 471.448 238.159 471.832 238.39 472.153C238.621 472.474 238.944 472.717 239.317 472.848Z" fill="#000028"/>
<path d="M146.387 498.936L48.4301 442.403C48.0598 442.273 47.739 442.032 47.512 441.711C47.2851 441.391 47.1632 441.009 47.1632 440.616C47.1632 440.224 47.2851 439.841 47.512 439.521C47.739 439.201 48.0598 438.959 48.4301 438.829L146.088 382.083C147.044 381.598 148.1 381.346 149.171 381.346C150.242 381.346 151.298 381.598 152.254 382.083L250.51 438.843C250.882 438.969 251.205 439.209 251.434 439.528C251.663 439.847 251.786 440.23 251.786 440.623C251.786 441.016 251.663 441.399 251.434 441.718C251.205 442.037 250.882 442.277 250.51 442.403L152.553 498.936C151.597 499.42 150.541 499.672 149.47 499.672C148.399 499.672 147.343 499.42 146.387 498.936Z" fill="#000028"/>
<path d="M406.224 546.996C433.978 546.996 456.477 533.601 456.477 517.078C456.477 500.554 433.978 487.16 406.224 487.16C378.47 487.16 355.971 500.554 355.971 517.078C355.971 533.601 378.47 546.996 406.224 546.996Z" fill="#000028"/>
<path d="M477.396 512.606C504.882 512.606 527.165 499.339 527.165 482.973C527.165 466.607 504.882 453.34 477.396 453.34C449.909 453.34 427.627 466.607 427.627 482.973C427.627 499.339 449.909 512.606 477.396 512.606Z" fill="#000028"/>
<path d="M55.2368 403.4C55.0944 394.856 48.5867 377.156 39.4874 366.176C30.388 355.197 16.2477 347.294 6.36513 350.84C-2.83391 354.172 -1.62352 366.29 9.75424 374.151C21.132 382.011 38.2343 391.823 43.3749 405.65L54.0406 422.538L55.2368 403.4Z" fill="#FFC100"/>
<path opacity="0.1" d="M55.2368 403.4C55.0944 394.856 48.5867 377.156 39.4874 366.176C30.388 355.197 16.2477 347.294 6.36513 350.84C-2.83391 354.172 -1.62352 366.29 9.75424 374.151C21.132 382.011 38.2343 391.823 43.3749 405.65L54.0406 422.538L55.2368 403.4Z" fill="black"/>
<path d="M56.077 415.119C55.9426 415.111 55.8146 415.059 55.712 414.972C55.6094 414.884 55.5377 414.766 55.5074 414.635C49.256 385.443 25.1477 362.061 10.8792 357.049C10.7226 356.994 10.5941 356.879 10.522 356.729C10.4499 356.58 10.4401 356.408 10.4947 356.251C10.5202 356.173 10.5614 356.1 10.6158 356.037C10.6703 355.975 10.7367 355.924 10.8113 355.889C10.8858 355.853 10.9668 355.832 11.0495 355.828C11.1321 355.825 11.2147 355.838 11.2922 355.867C25.8312 360.965 50.381 384.745 56.732 414.365C56.7657 414.527 56.7337 414.696 56.6429 414.835C56.5522 414.974 56.4101 415.071 56.2478 415.105L56.077 415.119Z" fill="white"/>
<path d="M52.104 433.945C50.68 429.146 44.6138 421.285 35.016 414.877C24.3503 407.757 10.9504 404.681 7.77489 399.085C3.97281 392.35 9.58337 385.828 20.4342 386.981C31.2851 388.135 50.5661 402.56 53.9979 424.746L52.104 433.945Z" fill="#FFC100"/>
<path d="M54.0406 428.847C53.9202 428.837 53.8051 428.793 53.7091 428.72C53.6131 428.647 53.5403 428.547 53.4995 428.434C44.0869 403.528 24.7917 394.984 15.9059 394.044C15.8234 394.035 15.7435 394.01 15.6708 393.97C15.5981 393.93 15.5341 393.876 15.4824 393.811C15.4307 393.746 15.3925 393.672 15.3699 393.592C15.3472 393.512 15.3407 393.429 15.3506 393.346C15.3593 393.264 15.3845 393.185 15.4246 393.113C15.4648 393.041 15.519 392.978 15.5842 392.927C15.6494 392.877 15.7241 392.84 15.8038 392.819C15.8836 392.798 15.9667 392.793 16.0483 392.805C25.8739 393.902 45.0552 402.545 54.6672 427.992C54.6992 428.069 54.7153 428.151 54.7145 428.234C54.7138 428.317 54.6963 428.398 54.663 428.474C54.6297 428.55 54.5814 428.619 54.5209 428.675C54.4604 428.732 54.3891 428.776 54.3112 428.804C54.224 428.833 54.1326 428.848 54.0406 428.847Z" fill="white"/>
<path d="M519.176 375.048C519.176 375.048 518.179 360.295 523.306 347.75C528.432 335.204 537.047 326.39 546.09 323.983C555.132 321.577 564.174 328.683 555.374 336.315C546.574 343.948 530.141 353.104 526.068 376.372L519.176 375.048Z" fill="#FFC100"/>
<path opacity="0.15" d="M519.176 375.048C519.176 375.048 518.179 360.295 523.306 347.75C528.432 335.204 537.047 326.39 546.09 323.983C555.132 321.577 564.174 328.683 555.374 336.315C546.574 343.948 530.141 353.104 526.068 376.372L519.176 375.048Z" fill="black"/>
<path d="M521.241 370.776H521.141C521.012 370.748 520.899 370.672 520.825 370.564C520.751 370.455 520.721 370.322 520.742 370.192C526.082 344.446 542.772 331.046 550.86 327.558C550.981 327.505 551.118 327.502 551.24 327.551C551.363 327.599 551.462 327.693 551.515 327.814C551.568 327.935 551.57 328.072 551.522 328.194C551.474 328.317 551.379 328.416 551.259 328.469C543.341 331.887 527.051 345.044 521.725 370.392C521.699 370.501 521.638 370.598 521.55 370.668C521.462 370.738 521.353 370.776 521.241 370.776Z" fill="white"/>
<path d="M565.442 362.531C564.915 364.696 562.921 366.134 561.042 367.33C559.162 368.526 557.126 369.808 556.371 371.901C554.861 376.173 559.475 380.829 557.795 384.988C557.376 385.832 556.79 386.583 556.073 387.195C555.356 387.807 554.522 388.267 553.623 388.548C552.141 389.043 550.634 389.461 549.108 389.801C548.374 389.924 547.632 390 546.887 390.028C544.677 389.949 542.502 390.594 540.693 391.865C537.959 394.13 537.731 398.131 536.421 401.435C535.599 403.388 534.363 405.14 532.8 406.571C531.237 408.001 529.382 409.076 527.364 409.722C526.025 410.15 523.533 410.862 522.01 410.349L521.682 410.221C521.454 410.05 521.17 409.808 521.027 409.68V409.608C520.13 407.715 520.628 405.493 520.287 403.443C520.295 403.319 520.295 403.196 520.287 403.072C519.76 400.708 519.261 398.359 518.763 395.952C517.852 391.609 517.012 387.237 516.228 382.866C515.744 380.018 514.804 376.97 515.545 374.08C516.328 370.89 519.632 370.221 520.344 367.102C520.643 365.863 520.685 364.582 520.956 363.328C521.395 361.487 522.331 359.802 523.661 358.456C524.992 357.11 526.667 356.155 528.503 355.696C534.199 354.343 540.265 358.074 545.947 356.593C547.371 356.194 548.795 355.482 550.219 354.941C554.733 353.204 560.387 353.517 563.733 357.02C564.448 357.728 564.977 358.601 565.275 359.562C565.573 360.523 565.63 361.543 565.442 362.531Z" fill="#FFC100"/>
<g opacity="0.07">
<path d="M565.442 362.531C564.915 364.696 562.921 366.134 561.042 367.33C559.162 368.526 557.126 369.808 556.371 371.901C554.861 376.173 559.475 380.829 557.795 384.988C557.376 385.832 556.79 386.583 556.073 387.195C555.356 387.807 554.522 388.267 553.623 388.548C552.163 389.114 550.651 389.534 549.108 389.801C548.374 389.924 547.632 390 546.887 390.028C544.677 389.949 542.502 390.594 540.693 391.865C537.959 394.13 537.731 398.131 536.421 401.435C535.599 403.388 534.363 405.14 532.8 406.571C531.237 408.001 529.382 409.076 527.364 409.722C526.025 410.15 523.533 410.862 522.01 410.349L521.682 410.221C521.592 410.182 521.506 410.135 521.426 410.078C521.272 409.968 521.138 409.833 521.027 409.68V409.608C519.959 408.113 520.529 405.237 520.287 403.443C520.295 403.319 520.295 403.196 520.287 403.072C519.76 400.708 519.261 398.359 518.763 395.952C517.852 391.609 517.012 387.237 516.228 382.866C515.744 380.018 514.804 376.97 515.545 374.08C516.328 370.89 519.632 370.221 520.344 367.102C520.643 365.863 520.685 364.582 520.956 363.328C521.395 361.487 522.331 359.802 523.661 358.456C524.992 357.11 526.667 356.155 528.503 355.696C534.199 354.343 540.265 358.074 545.947 356.593C547.371 356.194 548.795 355.482 550.219 354.941C554.733 353.204 560.387 353.517 563.733 357.02C564.448 357.728 564.977 358.601 565.275 359.562C565.573 360.523 565.63 361.543 565.442 362.531Z" fill="#263238"/>
</g>
<path d="M518.792 400.566C518.661 400.552 518.54 400.487 518.455 400.387C518.371 400.286 518.328 400.156 518.336 400.025C520.828 368.626 551.572 358.53 559.048 357.704C559.18 357.691 559.311 357.731 559.414 357.813C559.518 357.895 559.586 358.014 559.603 358.145C559.611 358.211 559.606 358.277 559.588 358.341C559.57 358.404 559.54 358.463 559.499 358.515C559.458 358.567 559.407 358.61 559.349 358.642C559.291 358.673 559.228 358.693 559.162 358.7C551.843 359.498 521.768 369.395 519.29 400.11C519.279 400.235 519.222 400.351 519.13 400.435C519.037 400.52 518.917 400.567 518.792 400.566Z" fill="white"/>
<path d="M551.059 378.978C550.958 378.979 550.859 378.949 550.775 378.893C547.4 376.902 543.627 375.68 539.726 375.313C535.825 374.946 531.891 375.444 528.204 376.771C528.142 376.797 528.074 376.81 528.006 376.809C527.939 376.807 527.872 376.793 527.81 376.765C527.748 376.737 527.693 376.697 527.647 376.647C527.601 376.597 527.566 376.538 527.544 376.474C527.521 376.41 527.512 376.342 527.517 376.275C527.522 376.207 527.541 376.141 527.572 376.081C527.603 376.021 527.646 375.968 527.698 375.925C527.751 375.882 527.812 375.85 527.877 375.831C531.711 374.45 535.804 373.934 539.861 374.32C543.918 374.707 547.84 375.986 551.344 378.067C551.399 378.104 551.446 378.152 551.482 378.207C551.518 378.263 551.542 378.326 551.552 378.391C551.563 378.456 551.56 378.523 551.544 378.588C551.528 378.652 551.499 378.712 551.458 378.765C551.416 378.832 551.357 378.887 551.287 378.924C551.217 378.962 551.139 378.98 551.059 378.978Z" fill="white"/>
<path d="M256.206 223.079C257.387 221.629 257.96 219.778 257.804 217.915C257.648 216.051 256.775 214.321 255.369 213.089C253.963 211.856 252.133 211.217 250.265 211.306C248.398 211.395 246.637 212.206 245.355 213.566C245.355 212.84 245.469 212.142 245.469 211.345C245.467 207.51 244.46 203.742 242.549 200.416C240.638 197.091 237.89 194.324 234.577 192.391C231.264 190.458 227.503 189.427 223.668 189.399C219.833 189.372 216.057 190.35 212.717 192.235C213.233 191.029 213.499 189.73 213.5 188.419C213.502 186.722 213.054 185.055 212.201 183.589C211.348 182.123 210.121 180.909 208.645 180.072C207.169 179.235 205.498 178.805 203.802 178.825C202.105 178.845 200.445 179.316 198.99 180.188C199.154 179.066 199.24 177.933 199.246 176.799C199.272 171.207 197.412 165.769 193.965 161.366C190.518 156.962 185.686 153.85 180.252 152.533C174.817 151.215 169.097 151.769 164.016 154.105C158.935 156.442 154.791 160.423 152.254 165.407C151.591 163.849 150.487 162.518 149.079 161.578C147.671 160.638 146.019 160.129 144.326 160.114C142.633 160.099 140.972 160.578 139.548 161.493C138.123 162.408 136.996 163.719 136.305 165.264C134.07 161.665 130.724 158.892 126.772 157.365C122.821 155.838 118.479 155.639 114.405 156.799C110.331 157.96 106.745 160.415 104.191 163.795C101.637 167.175 100.253 171.295 100.249 175.531C100.258 176.509 100.338 177.485 100.492 178.451C99.4332 177.585 98.1508 177.038 96.7935 176.872C95.4363 176.707 94.06 176.93 92.8248 177.517C91.5895 178.103 90.5462 179.028 89.8161 180.184C89.0861 181.34 88.6993 182.68 88.7008 184.047C88.7008 184.047 88.7008 184.047 88.7008 184.132C86.0742 182.597 83.0853 181.791 80.0429 181.797C75.8569 181.802 71.8136 183.319 68.6578 186.069C65.502 188.819 63.4463 192.617 62.8694 196.763C60.9242 196.029 58.8083 195.872 56.7761 196.312C54.7439 196.751 52.8819 197.769 51.4139 199.241C49.946 200.714 48.9345 202.579 48.5012 204.612C48.0679 206.646 48.2311 208.761 48.9712 210.704C43.512 212.879 38.9811 216.887 36.1575 222.041C33.3339 227.194 32.3942 233.171 33.4999 238.942C34.6057 244.713 37.6877 249.919 42.2162 253.664C46.7446 257.409 52.4363 259.459 58.3127 259.462L149.093 320.623L246.195 258.109C250.307 258.1 254.303 256.753 257.582 254.272C260.86 251.79 263.242 248.31 264.368 244.355C265.493 240.401 265.302 236.188 263.821 232.352C262.341 228.516 259.653 225.266 256.163 223.093L256.206 223.079ZM243.475 220.43C243.496 220.381 243.52 220.334 243.547 220.288C243.553 220.33 243.553 220.373 243.547 220.416L243.475 220.43Z" fill="#F5F5F5"/>
<path d="M80.0571 181.783C75.8711 181.787 71.8278 183.305 68.6721 186.055C65.5163 188.805 63.4606 192.603 62.8837 196.749C60.9384 196.015 58.8225 195.858 56.7903 196.298C54.7581 196.737 52.8961 197.754 51.4282 199.227C49.9602 200.699 48.9488 202.564 48.5154 204.598C48.0821 206.631 48.2453 208.747 48.9854 210.69C43.5263 212.864 38.9953 216.873 36.1717 222.027C33.3482 227.18 32.4085 233.156 33.5142 238.928C34.6199 244.699 37.702 249.905 42.2304 253.65C46.7588 257.395 52.4506 259.445 58.3269 259.448L149.107 320.608L239.559 262.381L241.88 253.68C229.563 269.672 213.101 256.941 213.101 256.941C213.101 256.941 211.848 265.101 204.956 265.599C203.046 265.784 201.125 265.386 199.445 264.458C197.765 263.53 196.405 262.116 195.544 260.402C194.648 264.046 192.687 267.341 189.909 269.865C187.131 272.389 183.664 274.027 179.951 274.571C166.508 277.063 158.662 262.31 158.662 262.31C158.662 262.31 156.141 268.96 149.107 267.18C142.072 265.4 144.564 261.484 144.564 261.484C144.564 261.484 140.563 265.001 133.685 261.327C126.807 257.653 126.337 246.888 126.337 246.888C122.704 248.325 118.734 248.686 114.901 247.928C111.068 247.171 107.534 245.327 104.721 242.616C94.7528 233.146 103.197 220.131 103.197 220.131C88.2166 223.064 88.772 210.775 88.772 210.775C67.8392 207.913 69.3486 187.379 80.0571 181.783Z" fill="#F0F0F0"/>
<path d="M172.475 293.752L169.299 482.603L189.05 471.196L195.544 280.437L172.475 293.752Z" fill="#FAFAFA"/>
<path d="M195.544 280.437L189.05 471.196L208.73 459.847L218.669 267.08L195.544 280.437Z" fill="#FFC100"/>
<path d="M155.629 303.478C153.728 304.47 151.606 304.961 149.463 304.902V491.973C151.606 492.031 153.728 491.541 155.629 490.549L169.299 482.66L172.475 293.809L155.629 303.478Z" fill="#FFC100"/>
<path d="M228.31 448.541L241.638 440.837C243.46 439.644 245.008 438.077 246.179 436.241C247.35 434.404 248.117 432.34 248.431 430.185L265.149 240.252L241.88 253.68L228.31 448.541Z" fill="#FFC100"/>
<path d="M218.669 267.08L208.73 459.847L228.31 448.541L241.88 253.68L218.669 267.08Z" fill="#FAFAFA"/>
<path d="M126.465 293.752L129.641 482.603L109.89 471.196L103.396 280.437L126.465 293.752Z" fill="#FFC100"/>
<path d="M103.396 280.437L109.89 471.196L90.2103 459.847L80.2565 267.08L103.396 280.437Z" fill="#E6E6E6"/>
<path d="M143.24 303.478C145.141 304.467 147.263 304.957 149.406 304.902V491.973C147.263 492.028 145.142 491.538 143.24 490.549L129.584 482.66L126.408 293.809L143.24 303.478Z" fill="#E6E6E6"/>
<path d="M70.616 448.541L57.2874 440.837C55.4637 439.646 53.9147 438.079 52.7435 436.243C51.5722 434.406 50.8057 432.341 50.4949 430.185L33.7771 240.252L57.0595 253.68L70.616 448.541Z" fill="#E6E6E6"/>
<path d="M80.2565 267.08L90.2103 459.847L70.6303 448.541L57.0595 253.68L80.2565 267.08Z" fill="#FFC100"/>
<path opacity="0.1" d="M126.465 293.752L129.641 482.603L109.89 471.196L103.396 280.437L126.465 293.752Z" fill="black"/>
<path opacity="0.1" d="M80.2565 267.08L90.2103 459.847L70.6303 448.541L57.0595 253.68L80.2565 267.08Z" fill="black"/>
<path d="M144.564 261.527C143.438 263.08 141.956 264.341 140.242 265.203C138.528 266.065 136.632 266.504 134.713 266.483C132.795 266.461 130.909 265.981 129.215 265.081C127.52 264.18 126.066 262.887 124.975 261.309C123.883 259.732 123.185 257.915 122.94 256.012C122.695 254.109 122.91 252.175 123.567 250.372C124.223 248.569 125.302 246.95 126.713 245.65C128.124 244.35 129.827 243.407 131.677 242.901C130.382 244.695 129.607 246.812 129.438 249.019C129.27 251.225 129.713 253.436 130.721 255.406C131.728 257.376 133.26 259.03 135.147 260.186C137.035 261.341 139.204 261.953 141.417 261.954C142.481 261.957 143.54 261.813 144.564 261.527Z" fill="#E0E0E0"/>
<path d="M158.662 262.31C158.799 263.553 158.636 264.811 158.186 265.978C157.736 267.145 157.013 268.187 156.077 269.016C155.141 269.846 154.02 270.439 152.807 270.745C151.595 271.052 150.327 271.063 149.109 270.778C147.891 270.493 146.76 269.92 145.809 269.107C144.859 268.294 144.118 267.265 143.647 266.106C143.177 264.947 142.992 263.693 143.107 262.447C143.221 261.202 143.633 260.002 144.308 258.949C144.479 260.588 145.167 262.129 146.273 263.349C147.67 264.881 149.616 265.798 151.687 265.899C153.757 266 155.784 265.278 157.323 263.891C157.834 263.422 158.284 262.891 158.662 262.31Z" fill="#E0E0E0"/>
<path d="M110.759 205.435C111.811 207.041 112.463 208.875 112.66 210.784C112.857 212.694 112.593 214.623 111.891 216.409C111.189 218.196 110.068 219.788 108.623 221.051C107.179 222.315 105.452 223.214 103.588 223.673C101.724 224.132 99.7773 224.137 97.911 223.688C96.0447 223.239 94.3133 222.349 92.862 221.092C91.4108 219.836 90.282 218.25 89.5703 216.467C88.8587 214.684 88.5849 212.757 88.772 210.847C90.134 212.924 92.107 214.528 94.419 215.437C96.7309 216.346 99.268 216.515 101.68 215.922C104.093 215.328 106.261 214.001 107.887 212.122C109.513 210.244 110.516 207.908 110.759 205.435Z" fill="#E0E0E0"/>
<path d="M92.1611 216.842C92.7406 217.949 93.0461 219.179 93.052 220.429C93.0579 221.679 92.764 222.912 92.1949 224.025C91.6259 225.138 90.7983 226.098 89.7816 226.825C88.7649 227.552 87.5886 228.025 86.3515 228.204C85.1144 228.382 83.8526 228.262 82.6717 227.852C81.4908 227.442 80.4254 226.755 79.5648 225.849C78.7042 224.942 78.0735 223.843 77.7256 222.642C77.3776 221.442 77.3226 220.175 77.5651 218.949C78.3213 220.415 79.5297 221.599 81.0112 222.324C81.9312 222.781 82.9322 223.052 83.9569 223.121C84.9816 223.191 86.01 223.058 86.9833 222.73C87.9566 222.402 88.8557 221.885 89.6293 221.21C90.4029 220.534 91.0358 219.713 91.4919 218.792C91.797 218.173 92.0219 217.518 92.1611 216.842Z" fill="#E0E0E0"/>
<path d="M216.519 234.357C216.638 236.276 216.295 238.196 215.519 239.956C214.742 241.715 213.555 243.263 212.056 244.468C210.557 245.673 208.791 246.502 206.906 246.883C205.021 247.264 203.072 247.187 201.223 246.659C199.374 246.131 197.678 245.167 196.279 243.847C194.879 242.528 193.817 240.892 193.181 239.077C192.545 237.262 192.354 235.321 192.624 233.417C192.894 231.512 193.617 229.701 194.732 228.134C194.866 230.343 195.608 232.472 196.876 234.286C198.145 236.1 199.89 237.528 201.919 238.412C203.948 239.296 206.182 239.602 208.374 239.296C210.566 238.99 212.631 238.084 214.34 236.678C215.16 235.998 215.892 235.218 216.519 234.357Z" fill="#E0E0E0"/>
<path d="M229.52 228.689C229.657 229.932 229.494 231.19 229.044 232.357C228.594 233.524 227.871 234.566 226.935 235.395C225.999 236.225 224.878 236.818 223.666 237.124C222.453 237.431 221.185 237.442 219.967 237.157C218.75 236.872 217.618 236.299 216.668 235.486C215.717 234.673 214.976 233.644 214.506 232.485C214.035 231.327 213.85 230.072 213.965 228.827C214.08 227.581 214.492 226.382 215.166 225.329C215.327 226.993 216.021 228.562 217.146 229.8C218.542 231.332 220.489 232.248 222.559 232.35C224.63 232.451 226.656 231.729 228.196 230.341C228.707 229.851 229.153 229.295 229.52 228.689Z" fill="#E0E0E0"/>
<path d="M195.643 215.475C196.761 216.033 197.728 216.851 198.464 217.861C199.2 218.87 199.684 220.041 199.874 221.275C200.065 222.51 199.956 223.772 199.559 224.956C199.161 226.14 198.485 227.212 197.588 228.081C196.691 228.951 195.599 229.592 194.403 229.953C193.207 230.313 191.942 230.382 190.714 230.152C189.486 229.923 188.331 229.403 187.345 228.636C186.359 227.868 185.572 226.876 185.049 225.742C186.339 226.383 187.781 226.656 189.217 226.53C190.652 226.403 192.025 225.882 193.183 225.025C194.341 224.167 195.239 223.006 195.779 221.67C196.319 220.334 196.479 218.875 196.241 217.454C196.133 216.77 195.932 216.104 195.643 215.475Z" fill="#E0E0E0"/>
<path d="M448.731 67.464C430.39 57.2397 405.228 58.92 377.531 74.94C321.24 107.336 275.757 186.211 275.757 251.06C275.757 287.045 289.77 311.139 311.827 319.953C329.542 327.073 352.454 324.225 377.46 309.786C433.622 277.347 479.162 198.472 479.162 133.623C479.162 100.828 467.513 77.8877 448.731 67.464ZM449.728 106.795C444.032 113.032 437.994 119.839 431.97 127.001C419.83 141.353 408.423 156.31 397.794 171.815C396.37 173.951 394.946 176.016 393.722 177.952C392.356 176.937 390.657 176.475 388.965 176.656C389.393 175.147 389.82 173.566 390.261 171.914L388.054 175.261C386.687 174.249 384.99 173.786 383.298 173.965C383.896 171.914 384.494 169.693 385.092 167.358C389.488 150.489 392.86 133.37 395.188 116.094C396.384 107.749 397.282 99.5182 397.951 91.8856C411.678 88.1832 423.925 89.479 433.636 95.1323C439.927 97.527 445.476 101.534 449.728 106.752V106.795ZM310.831 181.042C321.382 156.165 337.815 132.626 357.054 115.538C357.267 117.931 357.495 120.351 357.78 122.786C359.403 121.22 361.041 119.696 362.721 118.215C363.305 125.079 364.145 132.299 365.384 139.234C367.471 152.715 370.857 165.963 375.494 178.792C376.078 180.43 376.748 181.939 377.274 183.335C375.408 185.388 373.809 187.671 372.518 190.127C371.251 189.657 369.927 189.145 368.503 188.703C357.378 185.383 345.85 183.606 334.241 183.42C328.321 183.177 322.392 183.277 316.484 183.719C316.911 182.708 317.352 181.683 317.794 180.686C315.444 180.715 313.123 180.843 310.831 181V181.042ZM321.454 288.469C319.798 287.058 318.26 285.515 316.854 283.855L315.815 285.792C304.736 276.379 298.043 260.16 298.043 238.202C298.043 236.578 298.128 234.898 298.128 233.26C304.294 231.167 310.944 228.76 317.68 226.012C331.659 220.261 345.171 213.434 358.093 205.592C359.959 204.424 361.739 203.314 363.376 202.203C363.417 204.082 363.985 205.913 365.014 207.486C366.438 206.603 367.762 205.749 369.029 204.894C369.062 206.858 369.682 208.768 370.809 210.377C369.385 212.142 367.961 214.108 366.424 216.172C356.982 229.088 345.533 246.418 335.209 264.061C330.311 272.249 325.697 280.494 321.454 288.426V288.469ZM383.141 286.76C373.173 292.541 363.447 295.988 354.661 297.056C355.188 295.717 355.715 294.364 356.228 293.011C353.855 293.626 351.443 294.078 349.008 294.364C352.212 286.262 355.331 277.675 358.307 268.932C364.194 251.793 369.18 234.359 373.244 216.699C373.757 214.435 374.142 212.242 374.583 210.192C375.621 209.82 376.618 209.343 377.559 208.768C378.566 208.179 379.519 207.502 380.407 206.745C380.782 208.429 381.258 210.089 381.831 211.715C381.831 211.858 381.917 211.986 381.945 212.128C382.344 211.943 382.743 211.715 383.156 211.487C384.165 210.903 385.119 210.226 386.004 209.465H386.075C386.421 211.152 386.868 212.816 387.413 214.449C391.109 226.596 396.138 238.297 402.408 249.337C405.216 254.42 408.316 259.337 411.692 264.061C403.277 272.919 393.668 280.559 383.141 286.76ZM439.546 213.695C439.418 213.994 439.261 214.293 439.104 214.592C434.749 211.433 430.182 208.578 425.434 206.048C424.395 205.464 423.312 204.908 422.244 204.367C415.034 201.138 407.515 198.648 399.802 196.934C398.307 196.592 396.826 196.336 395.53 196.165C395.744 195.667 395.915 195.183 396.085 194.741L394.177 194.3C392.768 193.97 391.342 193.718 389.905 193.545C390.909 191.139 391.51 188.584 391.685 185.984C393.323 185.215 395.117 184.26 396.897 183.321C410.982 175.489 424.513 166.701 437.396 157.019C444.089 152.05 450.696 146.767 456.862 141.74C456.862 143.377 456.947 144.972 456.947 146.596C456.947 147.379 456.947 148.162 456.947 148.96L462.544 144.431C462.544 146.069 462.544 147.649 462.544 149.273C462.544 171.16 455.851 195.197 444.786 217.368C443.106 216.016 441.354 214.82 439.546 213.652V213.695Z" fill="#FFC100"/>
<path opacity="0.4" d="M448.731 67.464C430.39 57.2397 405.228 58.92 377.531 74.94C321.24 107.336 275.757 186.211 275.757 251.06C275.757 287.045 289.77 311.139 311.827 319.953C329.542 327.073 352.454 324.225 377.46 309.786C433.622 277.347 479.162 198.472 479.162 133.623C479.162 100.828 467.513 77.8877 448.731 67.464ZM449.728 106.795C444.032 113.032 437.994 119.839 431.97 127.001C419.83 141.353 408.423 156.31 397.794 171.815C396.37 173.951 394.946 176.016 393.722 177.952C392.356 176.937 390.657 176.475 388.965 176.656C389.393 175.147 389.82 173.566 390.261 171.914L388.054 175.261C386.687 174.249 384.99 173.786 383.298 173.965C383.896 171.914 384.494 169.693 385.092 167.358C389.488 150.489 392.86 133.37 395.188 116.094C396.384 107.749 397.282 99.5182 397.951 91.8856C411.678 88.1832 423.925 89.479 433.636 95.1323C439.927 97.527 445.476 101.534 449.728 106.752V106.795ZM310.831 181.042C321.382 156.165 337.815 132.626 357.054 115.538C357.267 117.931 357.495 120.351 357.78 122.786C359.403 121.22 361.041 119.696 362.721 118.215C363.305 125.079 364.145 132.299 365.384 139.234C367.471 152.715 370.857 165.963 375.494 178.792C376.078 180.43 376.748 181.939 377.274 183.335C375.408 185.388 373.809 187.671 372.518 190.127C371.251 189.657 369.927 189.145 368.503 188.703C357.378 185.383 345.85 183.606 334.241 183.42C328.321 183.177 322.392 183.277 316.484 183.719C316.911 182.708 317.352 181.683 317.794 180.686C315.444 180.715 313.123 180.843 310.831 181V181.042ZM321.454 288.469C319.798 287.058 318.26 285.515 316.854 283.855L315.815 285.792C304.736 276.379 298.043 260.16 298.043 238.202C298.043 236.578 298.128 234.898 298.128 233.26C304.294 231.167 310.944 228.76 317.68 226.012C331.659 220.261 345.171 213.434 358.093 205.592C359.959 204.424 361.739 203.314 363.376 202.203C363.417 204.082 363.985 205.913 365.014 207.486C366.438 206.603 367.762 205.749 369.029 204.894C369.062 206.858 369.682 208.768 370.809 210.377C369.385 212.142 367.961 214.108 366.424 216.172C356.982 229.088 345.533 246.418 335.209 264.061C330.311 272.249 325.697 280.494 321.454 288.426V288.469ZM383.141 286.76C373.173 292.541 363.447 295.988 354.661 297.056C355.188 295.717 355.715 294.364 356.228 293.011C353.855 293.626 351.443 294.078 349.008 294.364C352.212 286.262 355.331 277.675 358.307 268.932C364.194 251.793 369.18 234.359 373.244 216.699C373.757 214.435 374.142 212.242 374.583 210.192C375.621 209.82 376.618 209.343 377.559 208.768C378.566 208.179 379.519 207.502 380.407 206.745C380.782 208.429 381.258 210.089 381.831 211.715C381.831 211.858 381.917 211.986 381.945 212.128C382.344 211.943 382.743 211.715 383.156 211.487C384.165 210.903 385.119 210.226 386.004 209.465H386.075C386.421 211.152 386.868 212.816 387.413 214.449C391.109 226.596 396.138 238.297 402.408 249.337C405.216 254.42 408.316 259.337 411.692 264.061C403.277 272.919 393.668 280.559 383.141 286.76ZM439.546 213.695C439.418 213.994 439.261 214.293 439.104 214.592C434.749 211.433 430.182 208.578 425.434 206.048C424.395 205.464 423.312 204.908 422.244 204.367C415.034 201.138 407.515 198.648 399.802 196.934C398.307 196.592 396.826 196.336 395.53 196.165C395.744 195.667 395.915 195.183 396.085 194.741L394.177 194.3C392.768 193.97 391.342 193.718 389.905 193.545C390.909 191.139 391.51 188.584 391.685 185.984C393.323 185.215 395.117 184.26 396.897 183.321C410.982 175.489 424.513 166.701 437.396 157.019C444.089 152.05 450.696 146.767 456.862 141.74C456.862 143.377 456.947 144.972 456.947 146.596C456.947 147.379 456.947 148.162 456.947 148.96L462.544 144.431C462.544 146.069 462.544 147.649 462.544 149.273C462.544 171.16 455.851 195.197 444.786 217.368C443.106 216.016 441.354 214.82 439.546 213.652V213.695Z" fill="white"/>
<path d="M448.731 67.464C431.03 60.344 408.118 63.192 383.113 77.6314C326.936 110.027 281.368 188.888 281.368 253.752C281.368 286.504 293.031 309.473 311.799 319.953C330.154 330.178 355.316 328.497 383.084 312.463C439.247 280.039 484.786 201.178 484.786 136.314C484.815 100.33 470.76 76.2216 448.731 67.464ZM396.043 194.656C396.717 192.697 397.129 190.657 397.267 188.589C398.891 187.806 400.685 186.866 402.465 185.912C416.553 178.085 430.089 169.302 442.978 159.625C447.677 156.122 452.333 152.505 456.848 148.874L462.444 144.346C462.444 145.983 462.444 147.564 462.444 149.187C462.444 171.074 455.751 195.111 444.687 217.283C443.035 216.058 441.283 214.862 439.475 213.695C436.769 211.957 433.921 210.291 431.016 208.696C428.111 207.101 425.164 205.649 422.173 204.339C414.963 201.11 407.443 198.619 399.731 196.906C398.236 196.564 396.755 196.308 395.459 196.137C395.701 195.624 395.872 195.111 396.043 194.613V194.656ZM449.728 106.795C444.032 113.032 437.994 119.839 431.97 127.001C419.83 141.353 408.423 156.31 397.794 171.815C396.37 173.951 394.946 176.016 393.722 177.952C392.356 176.937 390.657 176.475 388.965 176.656C389.393 175.147 389.82 173.566 390.261 171.914C390.418 171.302 390.575 170.676 390.745 170.049C395.14 153.18 398.511 136.061 400.842 118.785C402.038 110.469 402.921 102.224 403.59 94.577C414.783 91.5581 424.95 91.8714 433.636 95.1466C439.925 97.5372 445.474 101.54 449.728 106.752V106.795ZM383.141 211.502C384.151 210.917 385.105 210.24 385.989 209.48H386.06C386.407 211.166 386.854 212.83 387.399 214.464C391.1 226.606 396.134 238.302 402.408 249.337C405.216 254.42 408.316 259.337 411.692 264.061C403.296 272.898 393.711 280.524 383.212 286.717C373.244 292.499 363.519 295.945 354.732 297.013C355.259 295.674 355.786 294.321 356.299 292.969C358.962 286.062 361.539 278.871 364.031 271.609C369.925 254.477 374.911 237.047 378.969 219.391C379.482 217.112 379.852 214.933 380.293 212.869C380.902 212.679 381.493 212.436 382.059 212.142C382.33 211.915 382.728 211.687 383.141 211.459V211.502ZM303.696 240.893C303.696 239.255 303.782 237.575 303.782 235.952C309.948 233.844 316.598 231.438 323.319 228.704C337.3 222.947 350.816 216.12 363.746 208.283L365.014 207.486C366.438 206.603 367.762 205.749 369.029 204.894C369.062 206.858 369.682 208.768 370.809 210.377C369.385 212.142 367.961 214.108 366.424 216.172C356.982 229.088 345.533 246.418 335.209 264.061C330.311 272.292 325.697 280.537 321.454 288.469C319.798 287.058 318.26 285.515 316.854 283.855C308.552 274.086 303.696 259.49 303.696 240.85V240.893ZM362.721 118.258C363.305 125.122 364.145 132.341 365.384 139.276C367.471 152.758 370.857 166.006 375.494 178.835C376.078 180.473 376.748 181.982 377.274 183.378C375.408 185.431 373.809 187.714 372.518 190.17C371.251 189.7 369.927 189.188 368.503 188.746C357.377 185.426 345.849 183.649 334.241 183.463C328.321 183.22 322.392 183.32 316.484 183.762C316.911 182.751 317.352 181.726 317.794 180.729C327.374 159.101 340.939 139.469 357.78 122.858C359.403 121.22 361.112 119.696 362.721 118.215V118.258Z" fill="#FFC100"/>
<path opacity="0.15" d="M448.731 67.464C431.03 60.344 408.118 63.192 383.113 77.6314C326.936 110.027 281.368 188.888 281.368 253.752C281.368 286.504 293.031 309.473 311.799 319.953C330.154 330.178 355.316 328.497 383.084 312.463C439.247 280.039 484.786 201.178 484.786 136.314C484.815 100.33 470.76 76.2216 448.731 67.464ZM396.043 194.656C396.717 192.697 397.129 190.657 397.267 188.589C398.891 187.806 400.685 186.866 402.465 185.912C416.553 178.085 430.089 169.302 442.978 159.625C447.677 156.122 452.333 152.505 456.848 148.874L462.444 144.346C462.444 145.983 462.444 147.564 462.444 149.187C462.444 171.074 455.751 195.111 444.687 217.283C443.035 216.058 441.283 214.862 439.475 213.695C436.769 211.957 433.921 210.291 431.016 208.696C428.111 207.101 425.164 205.649 422.173 204.339C414.963 201.11 407.443 198.619 399.731 196.906C398.236 196.564 396.755 196.308 395.459 196.137C395.701 195.624 395.872 195.111 396.043 194.613V194.656ZM449.728 106.795C444.032 113.032 437.994 119.839 431.97 127.001C419.83 141.353 408.423 156.31 397.794 171.815C396.37 173.951 394.946 176.016 393.722 177.952C392.356 176.937 390.657 176.475 388.965 176.656C389.393 175.147 389.82 173.566 390.261 171.914C390.418 171.302 390.575 170.676 390.745 170.049C395.14 153.18 398.511 136.061 400.842 118.785C402.038 110.469 402.921 102.224 403.59 94.577C414.783 91.5581 424.95 91.8714 433.636 95.1466C439.925 97.5372 445.474 101.54 449.728 106.752V106.795ZM383.141 211.502C384.151 210.917 385.105 210.24 385.989 209.48H386.06C386.407 211.166 386.854 212.83 387.399 214.464C391.1 226.606 396.134 238.302 402.408 249.337C405.216 254.42 408.316 259.337 411.692 264.061C403.296 272.898 393.711 280.524 383.212 286.717C373.244 292.499 363.519 295.945 354.732 297.013C355.259 295.674 355.786 294.321 356.299 292.969C358.962 286.062 361.539 278.871 364.031 271.609C369.925 254.477 374.911 237.047 378.969 219.391C379.482 217.112 379.852 214.933 380.293 212.869C380.902 212.679 381.493 212.436 382.059 212.142C382.33 211.915 382.728 211.687 383.141 211.459V211.502ZM303.696 240.893C303.696 239.255 303.782 237.575 303.782 235.952C309.948 233.844 316.598 231.438 323.319 228.704C337.3 222.947 350.816 216.12 363.746 208.283L365.014 207.486C366.438 206.603 367.762 205.749 369.029 204.894C369.062 206.858 369.682 208.768 370.809 210.377C369.385 212.142 367.961 214.108 366.424 216.172C356.982 229.088 345.533 246.418 335.209 264.061C330.311 272.292 325.697 280.537 321.454 288.469C319.798 287.058 318.26 285.515 316.854 283.855C308.552 274.086 303.696 259.49 303.696 240.85V240.893ZM362.721 118.258C363.305 125.122 364.145 132.341 365.384 139.276C367.471 152.758 370.857 166.006 375.494 178.835C376.078 180.473 376.748 181.982 377.274 183.378C375.408 185.431 373.809 187.714 372.518 190.17C371.251 189.7 369.927 189.188 368.503 188.746C357.377 185.426 345.849 183.649 334.241 183.463C328.321 183.22 322.392 183.32 316.484 183.762C316.911 182.751 317.352 181.726 317.794 180.729C327.374 159.101 340.939 139.469 357.78 122.858C359.403 121.22 361.112 119.696 362.721 118.215V118.258Z" fill="black"/>
<path d="M370.809 210.334C369.385 212.1 367.961 214.065 366.424 216.13C356.982 229.045 345.533 246.375 335.209 264.019C330.311 272.249 325.697 280.494 321.454 288.426C319.798 287.015 318.26 285.472 316.854 283.812C320.799 276.464 325.056 268.903 329.57 261.327C339.894 243.698 351.343 226.368 360.784 213.438C362.208 211.388 363.746 209.408 365.156 207.657L365.014 207.443C366.438 206.56 367.762 205.706 369.029 204.852C369.062 206.816 369.682 208.725 370.809 210.334Z" fill="#FFC100"/>
<path opacity="0.4" d="M370.809 210.334C369.385 212.1 367.961 214.065 366.424 216.13C356.982 229.045 345.533 246.375 335.209 264.019C330.311 272.249 325.697 280.494 321.454 288.426C319.798 287.015 318.26 285.472 316.854 283.812C320.799 276.464 325.056 268.903 329.57 261.327C339.894 243.698 351.343 226.368 360.784 213.438C362.208 211.388 363.746 209.408 365.156 207.657L365.014 207.443C366.438 206.56 367.762 205.706 369.029 204.852C369.062 206.816 369.682 208.725 370.809 210.334Z" fill="black"/>
<path d="M411.678 264.061C403.282 272.898 393.697 280.524 383.198 286.717C373.23 292.499 363.504 295.945 354.718 297.013C355.245 295.674 355.772 294.321 356.285 292.969C363.784 290.99 370.973 287.981 377.645 284.026C388.141 277.829 397.726 270.204 406.125 261.37C402.715 256.647 399.572 251.736 396.712 246.66C390.526 235.716 385.56 224.127 381.902 212.1C382.301 211.915 382.7 211.687 383.113 211.459C384.123 210.875 385.076 210.198 385.961 209.437H386.032C386.379 211.123 386.826 212.788 387.371 214.421C391.078 226.579 396.121 238.29 402.408 249.337C405.212 254.42 408.307 259.336 411.678 264.061Z" fill="#FFC100"/>
<path opacity="0.3" d="M411.678 264.061C403.282 272.898 393.697 280.524 383.198 286.717C373.23 292.499 363.504 295.945 354.718 297.013C355.245 295.674 355.772 294.321 356.285 292.969C363.784 290.99 370.973 287.981 377.645 284.026C388.141 277.829 397.726 270.204 406.125 261.37" fill="black"/>
<path opacity="0.4" d="M402.408 249.337C396.153 238.272 391.143 226.547 387.47 214.378C386.925 212.745 386.478 211.081 386.132 209.394H386.06C385.176 210.155 384.222 210.832 383.212 211.416C382.8 211.644 382.401 211.872 382.002 212.057C385.625 224.095 390.558 235.698 396.712 246.66C399.53 251.733 402.63 256.644 405.996 261.37L411.692 264.061C408.316 259.337 405.216 254.42 402.408 249.337Z" fill="black"/>
<path d="M422.244 204.296C415.034 201.067 407.515 198.577 399.802 196.863C398.307 196.521 396.826 196.265 395.53 196.094C395.744 195.596 395.915 195.111 396.085 194.67C405.148 196.856 413.926 200.086 422.244 204.296Z" fill="#FFC100"/>
<path d="M462.515 149.145C462.515 171.032 455.822 195.069 444.758 217.24C443.106 216.016 441.354 214.82 439.546 213.652C449.97 192.534 456.392 169.764 456.848 148.831L462.444 144.303C462.444 145.941 462.515 147.521 462.515 149.145Z" fill="#FFC100"/>
<path opacity="0.4" d="M422.244 204.296C415.034 201.067 407.515 198.577 399.802 196.863C398.307 196.521 396.826 196.265 395.53 196.094C395.744 195.596 395.915 195.111 396.085 194.67C405.148 196.856 413.926 200.086 422.244 204.296Z" fill="black"/>
<path opacity="0.3" d="M462.515 149.145C462.515 171.032 455.822 195.069 444.758 217.24C443.106 216.016 441.354 214.82 439.546 213.652C449.97 192.534 456.392 169.764 456.848 148.831L462.444 144.303C462.444 145.941 462.515 147.521 462.515 149.145Z" fill="black"/>
<path d="M449.728 106.752C444.032 112.989 437.994 119.796 431.97 126.959C419.83 141.31 408.423 156.267 397.794 171.772C396.37 173.908 394.946 175.973 393.722 177.909C392.356 176.895 390.657 176.432 388.965 176.614C389.393 175.104 389.82 173.524 390.261 171.872L392.141 169.024C402.775 153.527 414.181 138.575 426.317 124.225C432.34 117.105 438.35 110.227 444.088 104.018C441.153 100.457 437.609 97.4433 433.622 95.1181C439.919 97.5145 445.474 101.527 449.728 106.752Z" fill="#FFC100"/>
<path opacity="0.4" d="M449.728 106.752C444.032 112.989 437.994 119.796 431.97 126.959C419.83 141.31 408.423 156.267 397.794 171.772C396.37 173.908 394.946 175.973 393.722 177.909C392.356 176.895 390.657 176.432 388.965 176.614C389.393 175.104 389.82 173.524 390.261 171.872L392.141 169.024C402.775 153.527 414.181 138.575 426.317 124.225C432.34 117.105 438.35 110.227 444.088 104.018C441.153 100.457 437.609 97.4433 433.622 95.1181C439.919 97.5145 445.474 101.527 449.728 106.752Z" fill="black"/>
<path d="M377.274 183.335C375.408 185.388 373.809 187.671 372.518 190.127C371.251 189.657 369.927 189.145 368.503 188.703C357.378 185.383 345.85 183.606 334.241 183.42C328.321 183.177 322.392 183.277 316.484 183.719C316.911 182.708 317.352 181.683 317.794 180.686C321.382 180.558 324.999 180.572 328.588 180.686C340.196 180.88 351.722 182.657 362.849 185.969C364.273 186.439 365.612 186.952 366.879 187.393C368.166 184.934 369.765 182.651 371.635 180.601C371.109 179.177 370.439 177.753 369.841 176.058C365.207 163.223 361.822 149.97 359.731 136.485C358.962 131.971 358.307 127.329 357.78 122.729C359.403 121.163 361.041 119.639 362.721 118.158C363.305 125.022 364.145 132.242 365.384 139.177C367.471 152.658 370.857 165.906 375.494 178.735C376.078 180.43 376.776 181.939 377.274 183.335Z" fill="#FFC100"/>
<path opacity="0.4" d="M371.635 180.658C369.765 182.708 368.166 184.991 366.879 187.45C365.612 186.966 364.273 186.453 362.849 186.026C351.722 182.714 340.196 180.937 328.588 180.743C324.999 180.587 321.382 180.572 317.794 180.743C317.352 181.74 316.911 182.765 316.484 183.776C322.392 183.334 328.321 183.234 334.241 183.477C345.85 183.663 357.378 185.44 368.503 188.76C369.927 189.23 371.251 189.743 372.518 190.184C373.809 187.728 375.408 185.445 377.274 183.392L371.635 180.658Z" fill="black"/>
<path opacity="0.3" d="M371.635 180.658C371.109 179.234 370.439 177.81 369.841 176.115C365.207 163.28 361.822 150.027 359.731 136.542C358.962 132.028 358.307 127.386 357.78 122.786C359.403 121.22 361.041 119.696 362.721 118.215C363.305 125.079 364.145 132.299 365.384 139.234C367.471 152.715 370.857 165.963 375.494 178.792C376.078 180.43 376.748 181.939 377.274 183.335" fill="black"/>
<path d="M431.97 106.225L474.904 130.989C473.53 130.213 472.103 129.537 470.632 128.967C458.143 123.997 441.995 125.962 424.366 136.087C384.779 158.942 352.696 214.549 352.696 260.259C352.696 282.645 360.414 298.508 372.917 306.198L330.496 281.662C317.595 274.143 309.592 258.138 309.592 235.354C309.592 189.643 341.689 134.05 381.276 111.195C398.905 101.013 415.053 99.0483 427.527 104.075C429.038 104.693 430.504 105.416 431.913 106.24L431.97 106.225Z" fill="#455A64"/>
<path d="M334.341 275.14C323.305 268.718 317.253 254.592 317.253 235.396C317.253 192.164 347.712 139.404 385.149 117.788C395.117 112.092 404.857 109.031 413.387 109.031C417.28 108.997 421.145 109.697 424.779 111.095C425.946 111.577 427.078 112.139 428.168 112.776L441.853 120.679C434.407 122.657 427.268 125.647 420.635 129.565C379.026 153.602 345.163 212.242 345.163 260.302C345.076 267.991 346.034 275.655 348.011 283.086L334.341 275.14Z" fill="#37474F"/>
<path d="M470.675 128.967C458.2 123.983 442.052 125.962 424.423 136.087C384.836 158.956 352.739 214.535 352.739 260.259C352.739 283.371 360.955 299.519 374.199 306.91C387.128 314.115 404.857 312.933 424.423 301.627C464.01 278.843 496.107 223.193 496.107 177.482C496.107 152.164 486.225 135.175 470.675 128.967Z" fill="#37474F"/>
<path d="M309.848 229.914L352.967 254.805C353.138 251.53 353.479 248.212 353.949 244.837L310.845 219.946C310.332 223.326 310 226.648 309.848 229.914Z" fill="#455A64"/>
<path d="M367.506 120.764L410.61 145.656C413.23 143.563 415.908 141.597 418.613 139.775L375.509 114.897C372.803 116.706 370.126 118.728 367.506 120.764Z" fill="#455A64"/>
<path d="M347.1 141.042C345.149 143.377 343.269 145.798 341.404 148.262L384.523 173.153C386.345 170.676 388.239 168.269 390.219 165.919L347.1 141.042Z" fill="#455A64"/>
<path d="M323.946 177.539C322.636 180.302 321.411 183.093 320.272 185.912L363.376 210.804C364.515 207.956 365.74 205.165 367.05 202.431L323.946 177.539Z" fill="#455A64"/>
<path d="M474.904 131.003C473.534 130.216 472.106 129.536 470.632 128.967C458.784 124.253 443.704 125.777 427.143 134.663C433.437 131.202 443.191 125.962 454.199 119.141L474.904 131.003Z" fill="#263238"/>
<path d="M424.423 136.129C445.028 124.552 527.905 83.5125 527.905 24.7867L484.815 -0.104801C484.815 58.621 401.938 99.6606 381.333 111.238L388.994 115.652L395.502 111.38L424.508 128.141L416.976 131.829L424.423 136.129Z" fill="#455A64"/>
<path d="M395.502 111.38C424.466 95.3317 482.693 60.4722 490.81 11.4011L520.799 28.7312C517.382 77.3608 451.351 113.459 426.089 127.272L424.508 128.141L395.502 111.38Z" fill="#37474F"/>
<path d="M449.172 66.04C446.998 68.0146 444.782 69.9465 442.522 71.8357L485.726 96.656C487.976 94.7763 490.198 92.8397 492.362 90.8461L449.172 66.04Z" fill="#455A64"/>
<path d="M415.01 91.7574C412.262 93.509 409.556 95.175 406.951 96.7557L450.169 121.576C452.77 120 455.457 118.334 458.229 116.578L415.01 91.7574Z" fill="#455A64"/>
<path d="M474.833 35.0538C473.466 37.4651 471.985 39.8384 470.39 42.1738L513.551 66.9656C515.132 64.6445 516.613 62.2949 517.98 59.8456L474.833 35.0538Z" fill="#455A64"/>
<path d="M395.502 111.38C388.752 115.083 382.871 119.141 382.871 119.141L411.351 135.588C411.351 135.588 417.317 132.085 424.508 128.141L395.502 111.38Z" fill="#37474F"/>
<path d="M488.275 90.248C469.934 80.0237 444.772 81.704 417.004 97.724C360.841 130.163 315.302 209.038 315.302 273.887C315.302 309.872 329.314 333.966 351.386 342.78C369.086 349.9 391.999 347.052 417.004 332.613C473.181 300.174 518.72 221.313 518.72 156.45C518.72 123.684 507.058 100.743 488.275 90.248ZM489.286 129.579C483.59 135.816 477.538 142.623 471.515 149.785C459.378 164.141 447.972 179.097 437.339 194.599C435.915 196.735 434.491 198.8 433.266 200.736C431.9 199.721 430.202 199.259 428.51 199.44C428.937 197.931 429.379 196.35 429.806 194.698C429.037 195.852 428.311 196.963 427.613 198.045C426.245 197.034 424.548 196.571 422.857 196.749C423.455 194.698 424.053 192.477 424.651 190.142C429.04 173.271 432.412 156.152 434.747 138.878C435.943 130.533 436.826 122.302 437.495 114.67C451.223 110.967 463.469 112.263 473.195 117.916C479.484 120.34 485.028 124.371 489.272 129.607L489.286 129.579ZM350.375 203.826C360.941 178.949 377.431 155.41 396.598 138.322C396.812 140.715 397.054 143.135 397.324 145.57C398.948 144.004 400.595 142.48 402.266 140.999C402.849 147.863 403.69 155.083 404.928 162.018C407.013 175.501 410.404 188.749 415.053 201.576C415.637 203.214 416.292 204.723 416.833 206.119C414.962 208.172 413.36 210.455 412.063 212.911C410.81 212.441 409.471 211.929 408.047 211.487C396.922 208.167 385.394 206.39 373.786 206.204C367.866 205.961 361.937 206.061 356.028 206.503C356.456 205.492 356.897 204.467 357.353 203.47C355.003 203.57 352.682 203.698 350.375 203.855V203.826ZM361.012 311.253C359.349 309.846 357.806 308.302 356.399 306.639L355.359 308.576C344.28 299.163 337.602 282.872 337.602 260.986C337.602 259.362 337.687 257.682 337.687 256.044C343.839 253.951 350.503 251.544 357.224 248.796C371.207 243.042 384.723 236.215 397.652 228.376C399.503 227.208 401.283 226.098 402.935 224.987C402.972 226.865 403.534 228.695 404.558 230.27C405.982 229.387 407.307 228.533 408.574 227.678C408.607 229.642 409.227 231.552 410.354 233.161C408.93 234.926 407.506 236.891 405.982 238.956C396.527 251.872 385.078 269.202 374.768 286.845C369.855 295.105 365.256 303.35 361.012 311.281V311.253ZM422.7 309.544C412.661 315.325 403.006 318.772 394.149 319.84C394.676 318.501 395.217 317.148 395.729 315.795C393.356 316.407 390.944 316.859 388.51 317.148C391.7 309.046 394.818 300.459 397.794 291.715C403.694 274.581 408.681 257.146 412.732 239.483C413.259 237.219 413.629 235.026 414.071 232.976C415.11 232.607 416.108 232.13 417.047 231.552C418.056 230.966 419.009 230.289 419.895 229.529H419.966C420.324 231.21 420.776 232.869 421.319 234.499L421.447 234.912C421.831 234.727 422.23 234.499 422.657 234.271C423.668 233.688 424.621 233.011 425.505 232.249H425.591C425.931 233.937 426.378 235.602 426.929 237.233C430.59 249.407 435.6 261.133 441.867 272.192C444.676 277.272 447.771 282.188 451.137 286.917C442.75 295.738 433.18 303.353 422.7 309.544ZM479.105 236.479C478.962 236.778 478.806 237.077 478.649 237.376C474.294 234.217 469.726 231.362 464.979 228.832C463.939 228.248 462.871 227.692 461.803 227.151C454.59 223.916 447.066 221.425 439.347 219.718C437.851 219.376 436.37 219.12 435.075 218.949C435.283 218.484 435.468 218.009 435.63 217.525L433.736 216.984C432.327 216.655 430.901 216.403 429.464 216.229C430.454 213.819 431.055 211.267 431.244 208.668C432.867 207.899 434.662 206.945 436.442 206.005C450.526 198.173 464.057 189.386 476.94 179.704C483.633 174.734 490.24 169.451 496.406 164.424C496.406 166.062 496.492 167.657 496.492 169.28C496.492 170.063 496.492 170.846 496.492 171.644C498.4 170.12 500.265 168.596 502.102 167.116C502.102 168.753 502.102 170.334 502.102 171.957C502.102 193.844 495.424 217.881 484.345 240.053C482.665 238.857 480.918 237.675 479.105 236.507V236.479Z" fill="#FFC100"/>
<path opacity="0.4" d="M488.275 90.248C469.934 80.0237 444.772 81.704 417.004 97.724C360.841 130.163 315.302 209.038 315.302 273.887C315.302 309.872 329.314 333.966 351.386 342.78C369.086 349.9 391.999 347.052 417.004 332.613C473.181 300.174 518.72 221.313 518.72 156.45C518.72 123.684 507.058 100.743 488.275 90.248ZM489.286 129.579C483.59 135.816 477.538 142.623 471.515 149.785C459.378 164.141 447.972 179.097 437.339 194.599C435.915 196.735 434.491 198.8 433.266 200.736C431.9 199.721 430.202 199.259 428.51 199.44C428.937 197.931 429.379 196.35 429.806 194.698C429.037 195.852 428.311 196.963 427.613 198.045C426.245 197.034 424.548 196.571 422.857 196.749C423.455 194.698 424.053 192.477 424.651 190.142C429.04 173.271 432.412 156.152 434.747 138.878C435.943 130.533 436.826 122.302 437.495 114.67C451.223 110.967 463.469 112.263 473.195 117.916C479.484 120.34 485.028 124.371 489.272 129.607L489.286 129.579ZM350.375 203.826C360.941 178.949 377.431 155.41 396.598 138.322C396.812 140.715 397.054 143.135 397.324 145.57C398.948 144.004 400.595 142.48 402.266 140.999C402.849 147.863 403.69 155.083 404.928 162.018C407.013 175.501 410.404 188.749 415.053 201.576C415.637 203.214 416.292 204.723 416.833 206.119C414.962 208.172 413.36 210.455 412.063 212.911C410.81 212.441 409.471 211.929 408.047 211.487C396.922 208.167 385.394 206.39 373.786 206.204C367.866 205.961 361.937 206.061 356.028 206.503C356.456 205.492 356.897 204.467 357.353 203.47C355.003 203.57 352.682 203.698 350.375 203.855V203.826ZM361.012 311.253C359.349 309.846 357.806 308.302 356.399 306.639L355.359 308.576C344.28 299.163 337.602 282.872 337.602 260.986C337.602 259.362 337.687 257.682 337.687 256.044C343.839 253.951 350.503 251.544 357.224 248.796C371.207 243.042 384.723 236.215 397.652 228.376C399.503 227.208 401.283 226.098 402.935 224.987C402.972 226.865 403.534 228.695 404.558 230.27C405.982 229.387 407.307 228.533 408.574 227.678C408.607 229.642 409.227 231.552 410.354 233.161C408.93 234.926 407.506 236.891 405.982 238.956C396.527 251.872 385.078 269.202 374.768 286.845C369.855 295.105 365.256 303.35 361.012 311.281V311.253ZM422.7 309.544C412.661 315.325 403.006 318.772 394.149 319.84C394.676 318.501 395.217 317.148 395.729 315.795C393.356 316.407 390.944 316.859 388.51 317.148C391.7 309.046 394.818 300.459 397.794 291.715C403.694 274.581 408.681 257.146 412.732 239.483C413.259 237.219 413.629 235.026 414.071 232.976C415.11 232.607 416.108 232.13 417.047 231.552C418.056 230.966 419.009 230.289 419.895 229.529H419.966C420.324 231.21 420.776 232.869 421.319 234.499L421.447 234.912C421.831 234.727 422.23 234.499 422.657 234.271C423.668 233.688 424.621 233.011 425.505 232.249H425.591C425.931 233.937 426.378 235.602 426.929 237.233C430.59 249.407 435.6 261.133 441.867 272.192C444.676 277.272 447.771 282.188 451.137 286.917C442.75 295.738 433.18 303.353 422.7 309.544ZM479.105 236.479C478.962 236.778 478.806 237.077 478.649 237.376C474.294 234.217 469.726 231.362 464.979 228.832C463.939 228.248 462.871 227.692 461.803 227.151C454.59 223.916 447.066 221.425 439.347 219.718C437.851 219.376 436.37 219.12 435.075 218.949C435.283 218.484 435.468 218.009 435.63 217.525L433.736 216.984C432.327 216.655 430.901 216.403 429.464 216.229C430.454 213.819 431.055 211.267 431.244 208.668C432.867 207.899 434.662 206.945 436.442 206.005C450.526 198.173 464.057 189.386 476.94 179.704C483.633 174.734 490.24 169.451 496.406 164.424C496.406 166.062 496.492 167.657 496.492 169.28C496.492 170.063 496.492 170.846 496.492 171.644C498.4 170.12 500.265 168.596 502.102 167.116C502.102 168.753 502.102 170.334 502.102 171.957C502.102 193.844 495.424 217.881 484.345 240.053C482.665 238.857 480.918 237.675 479.105 236.507V236.479Z" fill="white"/>
<path d="M488.275 90.248C470.575 83.128 447.663 85.976 422.657 100.415C366.48 132.854 320.941 211.715 320.941 276.578C320.941 309.33 332.604 332.3 351.386 342.78C369.727 353.004 394.889 351.324 422.657 335.29C478.82 302.865 524.359 224.004 524.359 159.141C524.359 123.185 510.347 99.0768 488.275 90.248ZM435.587 217.44C436.262 215.481 436.674 213.441 436.812 211.373C438.449 210.59 440.244 209.65 442.024 208.696C456.107 200.868 469.638 192.085 482.522 182.409C487.221 178.906 491.878 175.289 496.392 171.658C498.3 170.134 500.166 168.611 502.003 167.13C502.003 168.767 502.003 170.348 502.003 171.971C502.003 193.858 495.324 217.895 484.245 240.067C482.593 238.842 480.861 237.646 479.048 236.479C476.328 234.741 473.48 233.075 470.575 231.48C467.67 229.885 464.736 228.433 461.746 227.123C454.533 223.887 447.009 221.397 439.29 219.69C437.794 219.348 436.313 219.092 435.018 218.921C435.231 218.446 435.422 217.961 435.587 217.468V217.44ZM489.272 129.607C483.576 135.844 477.524 142.651 471.5 149.814C459.364 164.169 447.958 179.126 437.324 194.627C435.9 196.763 434.476 198.828 433.252 200.765C431.886 199.75 430.188 199.287 428.496 199.469C428.923 197.959 429.364 196.379 429.792 194.727C429.962 194.115 430.105 193.488 430.276 192.861C434.677 175.994 438.048 158.874 440.372 141.597C441.568 133.281 442.465 125.036 443.134 117.389C454.313 114.371 464.494 114.684 473.181 117.959C479.47 120.369 485.018 124.385 489.272 129.607ZM422.686 234.314C423.696 233.73 424.649 233.053 425.534 232.292H425.619C425.959 233.98 426.406 235.645 426.958 237.276C430.618 249.45 435.629 261.175 441.896 272.235C444.704 277.315 447.799 282.231 451.166 286.959C442.767 295.794 433.182 303.419 422.686 309.615C412.647 315.397 402.992 318.843 394.135 319.911C394.661 318.572 395.203 317.219 395.715 315.867C398.364 308.96 400.941 301.769 403.433 294.507C409.327 277.375 414.313 259.945 418.371 242.288C418.884 240.01 419.254 237.831 419.71 235.767C420.319 235.577 420.909 235.334 421.475 235.04C421.874 234.77 422.344 234.542 422.7 234.314H422.686ZM343.227 263.705C343.227 262.068 343.312 260.388 343.312 258.764C349.478 256.657 356.128 254.25 362.864 251.516C376.84 245.759 390.351 238.932 403.277 231.096L404.544 230.298C405.968 229.416 407.292 228.561 408.56 227.707C408.592 229.671 409.212 231.58 410.34 233.189C408.916 234.955 407.492 236.92 405.968 238.985C396.513 251.9 385.064 269.231 374.754 286.874C369.841 295.105 365.242 303.35 360.998 311.281C359.335 309.874 357.791 308.331 356.384 306.668C348.097 296.942 343.241 282.346 343.241 263.705H343.227ZM402.251 141.071C402.835 147.934 403.675 155.154 404.914 162.089C406.999 175.572 410.389 188.821 415.039 201.648C415.623 203.285 416.278 204.795 416.819 206.19C414.948 208.244 413.345 210.526 412.048 212.983C410.795 212.513 409.457 212 408.033 211.559C396.908 208.239 385.38 206.461 373.771 206.276C367.851 206.032 361.922 206.132 356.014 206.575C356.441 205.564 356.883 204.538 357.338 203.541C366.914 181.914 380.474 162.282 397.31 145.67C398.943 144.085 400.595 142.552 402.266 141.071H402.251Z" fill="#FFC100"/>
<path d="M410.354 233.189C408.93 234.955 407.506 236.92 405.982 238.985C396.527 251.9 385.078 269.231 374.768 286.874C369.855 295.105 365.256 303.35 361.012 311.281C359.349 309.874 357.806 308.331 356.399 306.668C360.357 299.32 364.615 291.758 369.115 284.183C379.439 266.553 390.888 249.223 400.329 236.293C401.753 234.243 403.291 232.264 404.715 230.512L404.558 230.298C405.982 229.416 407.307 228.561 408.574 227.707C408.607 229.671 409.227 231.58 410.354 233.189Z" fill="#FFC100"/>
<path opacity="0.3" d="M410.354 233.189C408.93 234.955 407.506 236.92 405.982 238.985C396.527 251.9 385.078 269.231 374.768 286.874C369.855 295.105 365.256 303.35 361.012 311.281C359.349 309.874 357.806 308.331 356.399 306.668C360.357 299.32 364.615 291.758 369.115 284.183C379.439 266.553 390.888 249.223 400.329 236.293C401.753 234.243 403.291 232.264 404.715 230.512L404.558 230.298C405.982 229.416 407.307 228.561 408.574 227.707C408.607 229.671 409.227 231.58 410.354 233.189Z" fill="black"/>
<path d="M451.223 286.917C442.824 295.751 433.239 303.376 422.743 309.572C412.704 315.354 403.049 318.8 394.192 319.868C394.718 318.529 395.26 317.177 395.772 315.824C403.271 313.843 410.459 310.834 417.132 306.881C427.626 300.68 437.21 293.056 445.612 284.225C442.236 279.502 439.131 274.591 436.313 269.515C430.132 258.571 425.171 246.982 421.518 234.955C421.903 234.77 422.301 234.542 422.728 234.314C423.739 233.73 424.692 233.053 425.576 232.292H425.662C426.002 233.98 426.449 235.645 427 237.276C430.661 249.449 435.671 261.175 441.938 272.235C444.753 277.301 447.853 282.202 451.223 286.917Z" fill="#FFC100"/>
<path opacity="0.2" d="M451.223 286.917C442.824 295.751 433.239 303.376 422.743 309.572C412.704 315.354 403.049 318.8 394.192 319.868C394.718 318.529 395.26 317.177 395.772 315.824C403.271 313.843 410.459 310.834 417.132 306.881C427.626 300.68 437.21 293.056 445.612 284.225" fill="black"/>
<path opacity="0.3" d="M441.952 272.192C435.686 261.133 430.675 249.407 427.015 237.233C426.463 235.602 426.016 233.937 425.676 232.249H425.591C424.706 233.011 423.753 233.688 422.743 234.271C422.316 234.499 421.917 234.727 421.532 234.912C425.185 246.939 430.146 258.528 436.328 269.473C439.146 274.548 442.25 279.46 445.626 284.183L451.322 286.874C447.923 282.162 444.795 277.26 441.952 272.192Z" fill="black"/>
<path d="M461.803 227.151C454.59 223.916 447.066 221.425 439.347 219.718C437.851 219.376 436.37 219.12 435.075 218.949C435.283 218.484 435.468 218.009 435.63 217.525C444.697 219.713 453.479 222.943 461.803 227.151Z" fill="#FFC100"/>
<path d="M502.088 172C502.088 193.887 495.409 217.924 484.331 240.096C482.679 238.871 480.946 237.675 479.133 236.507C489.543 215.389 495.979 192.619 496.42 171.687C498.329 170.163 500.194 168.639 502.031 167.158C502.003 168.796 502.088 170.377 502.088 172Z" fill="#FFC100"/>
<path opacity="0.3" d="M461.803 227.151C454.59 223.916 447.066 221.425 439.347 219.718C437.851 219.376 436.37 219.12 435.075 218.949C435.283 218.484 435.468 218.009 435.63 217.525C444.697 219.713 453.479 222.943 461.803 227.151Z" fill="black"/>
<path opacity="0.2" d="M502.088 172C502.088 193.887 495.409 217.924 484.331 240.096C482.679 238.871 480.946 237.675 479.133 236.507C489.543 215.389 495.979 192.619 496.42 171.687C498.329 170.163 500.194 168.639 502.031 167.158C502.003 168.796 502.088 170.377 502.088 172Z" fill="black"/>
<path d="M489.272 129.607C483.576 135.844 477.524 142.651 471.5 149.814C459.364 164.169 447.958 179.126 437.324 194.627C435.9 196.763 434.476 198.828 433.252 200.765C431.886 199.75 430.188 199.287 428.496 199.469C428.923 197.959 429.364 196.379 429.792 194.727L431.685 191.879C442.315 176.379 453.721 161.427 465.861 147.08C471.885 139.96 477.894 133.082 483.619 126.873C480.685 123.315 477.147 120.303 473.167 117.973C479.46 120.377 485.013 124.388 489.272 129.607Z" fill="#FFC100"/>
<path opacity="0.3" d="M489.272 129.607C483.576 135.844 477.524 142.651 471.5 149.814C459.364 164.169 447.958 179.126 437.324 194.627C435.9 196.763 434.476 198.828 433.252 200.765C431.886 199.75 430.188 199.287 428.496 199.469C428.923 197.959 429.364 196.379 429.792 194.727L431.685 191.879C442.315 176.379 453.721 161.427 465.861 147.08C471.885 139.96 477.894 133.082 483.619 126.873C480.685 123.315 477.147 120.303 473.167 117.973C479.46 120.377 485.013 124.388 489.272 129.607Z" fill="black"/>
<path d="M416.833 206.19C414.962 208.244 413.36 210.526 412.063 212.983C410.81 212.513 409.471 212 408.047 211.559C396.922 208.239 385.394 206.461 373.786 206.276C367.866 206.032 361.937 206.132 356.028 206.575C356.456 205.564 356.897 204.538 357.353 203.541C360.941 203.413 364.558 203.428 368.147 203.541C379.755 203.741 391.282 205.523 402.408 208.839C403.832 209.309 405.156 209.821 406.424 210.263C407.715 207.806 409.313 205.524 411.18 203.47C410.653 202.046 409.984 200.622 409.386 198.928C404.757 186.092 401.376 172.839 399.289 159.355C398.506 154.841 397.865 150.198 397.324 145.599C398.948 144.032 400.595 142.509 402.266 141.028C402.849 147.892 403.69 155.111 404.928 162.046C407.013 175.529 410.404 188.778 415.053 201.605C415.637 203.285 416.292 204.795 416.833 206.19Z" fill="#FFC100"/>
<path opacity="0.3" d="M411.18 203.513C409.313 205.566 407.715 207.849 406.424 210.305C405.156 209.821 403.818 209.309 402.408 208.881C391.281 205.571 379.754 203.793 368.147 203.598C364.558 203.442 360.941 203.428 357.353 203.598C356.897 204.595 356.456 205.62 356.028 206.632C361.937 206.189 367.866 206.089 373.786 206.332C385.409 206.485 396.957 208.234 408.104 211.53C409.528 212 410.867 212.513 412.12 212.954C413.417 210.498 415.019 208.215 416.89 206.162L411.18 203.513Z" fill="black"/>
<path opacity="0.2" d="M411.18 203.513C410.653 202.089 409.984 200.665 409.386 198.97C404.757 186.134 401.376 172.882 399.289 159.397C398.506 154.883 397.865 150.241 397.324 145.642C398.948 144.075 400.595 142.552 402.266 141.071C402.849 147.934 403.69 155.154 404.928 162.089C407.013 175.572 410.404 188.821 415.053 201.648C415.637 203.285 416.292 204.795 416.833 206.19" fill="black"/>
<path d="M329.286 503.578H316.569L318.606 515.981C318.686 516.313 318.839 516.623 319.053 516.889C319.267 517.154 319.538 517.37 319.844 517.519C320.797 517.997 321.848 518.245 322.913 518.245C323.979 518.245 325.029 517.997 325.982 517.519C326.291 517.372 326.562 517.158 326.777 516.891C326.991 516.625 327.143 516.314 327.221 515.981L329.286 503.578Z" fill="#FAFAFA"/>
<path d="M322.935 506.939C326.458 506.939 329.314 505.288 329.314 503.251C329.314 501.214 326.458 499.563 322.935 499.563C319.411 499.563 316.555 501.214 316.555 503.251C316.555 505.288 319.411 506.939 322.935 506.939Z" fill="#FAFAFA"/>
<path d="M264.608 465.956H251.891L253.928 478.359C254.009 478.689 254.163 478.996 254.377 479.259C254.591 479.523 254.861 479.736 255.166 479.883C256.117 480.367 257.168 480.619 258.235 480.619C259.302 480.619 260.353 480.367 261.304 479.883C261.61 479.736 261.879 479.523 262.094 479.259C262.308 478.996 262.461 478.689 262.543 478.359L264.608 465.956Z" fill="#FAFAFA"/>
<path d="M253.728 463.008C251.236 464.432 251.236 466.782 253.728 468.22C255.127 468.931 256.673 469.301 258.242 469.301C259.811 469.301 261.358 468.931 262.756 468.22C265.263 466.796 265.263 464.447 262.756 463.008C261.358 462.298 259.811 461.928 258.242 461.928C256.673 461.928 255.127 462.298 253.728 463.008Z" fill="#FAFAFA"/>
<path d="M513.679 410.278H500.963L502.985 422.681C503.061 423.013 503.21 423.323 503.422 423.59C503.634 423.856 503.903 424.071 504.21 424.219C505.163 424.703 506.217 424.955 507.286 424.955C508.355 424.955 509.408 424.703 510.361 424.219C510.668 424.069 510.938 423.854 511.153 423.588C511.367 423.322 511.52 423.012 511.6 422.681L513.679 410.278Z" fill="#FAFAFA"/>
<path d="M502.8 407.344C500.308 408.768 500.308 411.118 502.8 412.556C504.199 413.267 505.745 413.637 507.314 413.637C508.883 413.637 510.429 413.267 511.828 412.556C514.32 411.132 514.32 408.783 511.828 407.344C510.429 406.634 508.883 406.264 507.314 406.264C505.745 406.264 504.199 406.634 502.8 407.344Z" fill="#FAFAFA"/>
<path d="M448.987 372.656H436.271L438.307 385.059C438.389 385.388 438.542 385.696 438.756 385.959C438.97 386.222 439.24 386.435 439.546 386.582C440.499 387.066 441.553 387.319 442.622 387.319C443.691 387.319 444.745 387.066 445.698 386.582C446.004 386.438 446.273 386.225 446.485 385.962C446.697 385.698 446.847 385.389 446.922 385.059L448.987 372.656Z" fill="#FAFAFA"/>
<path d="M438.122 369.708C435.63 371.132 435.63 373.482 438.122 374.934C439.521 375.645 441.067 376.015 442.636 376.015C444.205 376.015 445.751 375.645 447.15 374.934C449.642 373.51 449.642 371.16 447.15 369.708C445.751 368.998 444.205 368.627 442.636 368.627C441.067 368.627 439.521 368.998 438.122 369.708Z" fill="#FAFAFA"/>
<path d="M523.819 345.144V404.368C523.699 406.507 523.079 408.588 522.008 410.443C520.937 412.298 519.445 413.876 517.653 415.048L512.626 417.896H512.541C510.153 419.069 507.479 419.528 504.837 419.22L351.899 503.977C351.717 506.034 351.074 508.023 350.019 509.797C348.964 511.572 347.524 513.087 345.804 514.23L340.792 517.078C340.644 517.175 340.487 517.256 340.322 517.32C340.239 517.368 340.154 517.411 340.066 517.448H339.994C336.955 518.711 333.568 518.867 330.425 517.889C330.061 517.78 329.704 517.647 329.357 517.491L329.186 517.42C328.93 517.306 328.688 517.177 328.46 517.049L248.189 470.897C246.396 469.726 244.903 468.148 243.832 466.293C242.761 464.438 242.141 462.357 242.023 460.217V360.908C242.145 358.769 242.766 356.689 243.836 354.835C244.907 352.98 246.398 351.402 248.189 350.228L425.093 248.027C427.003 247.058 429.116 246.553 431.259 246.553C433.401 246.553 435.514 247.058 437.425 248.027L442.451 250.875C444.289 252.078 445.867 253.639 447.09 255.464C448.313 257.289 449.157 259.341 449.571 261.498L454.413 297.853L517.667 334.379C519.468 335.561 520.964 337.153 522.033 339.024C523.103 340.895 523.714 342.992 523.819 345.144Z" fill="#37474F"/>
<path d="M442.451 250.918L437.438 248.07C435.528 247.1 433.415 246.595 431.272 246.595C429.13 246.595 427.017 247.1 425.107 248.07L248.189 350.228C247.819 350.441 247.434 350.712 247.548 350.626C244.579 352.866 242.613 356.187 242.08 359.868C242.536 356.721 245.099 355.596 248.175 357.348L253.201 360.196C255.112 361.165 257.225 361.67 259.367 361.67C261.51 361.67 263.622 361.165 265.533 360.196L442.451 257.981C445.854 256.073 445.854 252.883 442.451 250.918Z" fill="#455A64"/>
<path d="M523.818 345.144V404.368C523.699 406.507 523.079 408.588 522.008 410.443C520.937 412.298 519.445 413.876 517.652 415.048L512.626 417.896H512.54C510.318 419.049 507.814 419.543 505.32 419.32C503.561 419.218 501.846 418.732 500.294 417.896L443.22 385.016C441.427 383.843 439.935 382.266 438.864 380.411C437.793 378.556 437.173 376.475 437.054 374.336V315.041C437.171 312.901 437.79 310.82 438.861 308.964C439.932 307.109 441.426 305.532 443.22 304.361L454.398 297.896L517.652 334.421C519.451 335.598 520.946 337.182 522.017 339.045C523.089 340.908 523.706 342.998 523.818 345.144Z" fill="#263238"/>
<path d="M454.398 297.896L443.22 304.361C439.831 306.312 439.831 309.515 443.22 311.481L500.294 344.432C502.087 345.604 503.58 347.181 504.651 349.036C505.722 350.892 506.342 352.973 506.46 355.112V414.35C506.46 418.266 509.236 419.861 512.626 417.91L517.652 415.062C519.443 413.888 520.934 412.31 522.005 410.455C523.076 408.601 523.697 406.521 523.818 404.382V345.144C523.697 343.006 523.076 340.926 522.005 339.071C520.934 337.216 519.443 335.638 517.652 334.464L454.398 297.896Z" fill="#455A64"/>
<path d="M506.46 355.112V414.35C506.46 418.266 509.236 419.861 512.626 417.91L517.652 415.062C519.443 413.888 520.934 412.31 522.005 410.455C523.076 408.601 523.697 406.521 523.818 404.382V345.144C523.752 342.983 523.134 340.876 522.024 339.021L504.665 348.989C505.78 350.842 506.398 352.951 506.46 355.112Z" fill="#37474F"/>
<path d="M503.896 419.32C503.305 420.547 502.548 421.688 501.647 422.709C499.9 424.309 497.951 425.673 495.851 426.768L359.36 505.629C358.405 506.113 357.349 506.365 356.278 506.365C355.206 506.365 354.15 506.113 353.195 505.629L333.145 494.052L293.031 470.897C291.167 469.914 289.608 468.441 288.52 466.637C287.432 464.832 286.857 462.766 286.857 460.659C286.857 458.552 287.432 456.485 288.52 454.681C289.608 452.877 291.167 451.404 293.031 450.42L315.815 437.277L333.173 427.309L429.464 371.588C431.376 370.624 433.488 370.122 435.63 370.122C437.772 370.122 439.883 370.624 441.796 371.588L498.87 404.553C500.629 405.656 502.104 407.158 503.175 408.937C504.246 410.715 504.884 412.721 505.036 414.792C504.987 416.366 504.599 417.911 503.896 419.32Z" fill="#263238"/>
<path d="M359.375 492.272L501.96 409.879C503.654 408.896 505.036 409.694 505.036 411.659V417.896C504.977 418.965 504.668 420.005 504.134 420.932C503.599 421.86 502.855 422.649 501.96 423.236L359.36 505.629C357.666 506.611 356.285 505.814 356.285 503.849V497.612C356.343 496.541 356.653 495.499 357.19 494.571C357.727 493.644 358.475 492.856 359.375 492.272Z" fill="#37474F"/>
<path d="M429.464 341.043L293.031 419.876C291.236 421.046 289.743 422.624 288.672 424.479C287.601 426.335 286.982 428.416 286.865 430.556V443.03C286.982 445.169 287.601 447.251 288.672 449.106C289.743 450.962 291.236 452.539 293.031 453.71L350.119 486.661C352.03 487.631 354.142 488.136 356.285 488.136C358.427 488.136 360.54 487.631 362.451 486.661L498.87 407.8C500.663 406.628 502.156 405.051 503.227 403.196C504.298 401.34 504.918 399.259 505.036 397.12V384.632C504.919 382.492 504.3 380.411 503.228 378.555C502.157 376.7 500.664 375.122 498.87 373.952L441.796 341C439.882 340.037 437.767 339.539 435.625 339.547C433.482 339.554 431.371 340.067 429.464 341.043Z" fill="#37474F"/>
<path d="M356.285 461.414V488.142C354.142 488.201 352.019 487.711 350.119 486.718L293.031 453.767C291.236 452.596 289.743 451.019 288.672 449.163C287.601 447.308 286.982 445.226 286.865 443.087V430.584C286.98 428.57 287.536 426.605 288.493 424.828C289.45 423.052 290.785 421.507 292.404 420.303C289.641 422.282 289.855 425.187 293.031 427.024L350.119 459.975C352.018 460.971 354.14 461.466 356.285 461.414Z" fill="#263238"/>
<path d="M362.451 459.947L498.87 381.114C502.273 379.149 502.273 375.959 498.87 373.994L441.796 341.043C439.885 340.073 437.773 339.568 435.63 339.568C433.487 339.568 431.375 340.073 429.464 341.043L293.031 419.876C289.627 421.841 289.627 425.03 293.031 426.996L350.119 459.947C352.03 460.916 354.142 461.422 356.285 461.422C358.427 461.422 360.54 460.916 362.451 459.947Z" fill="#455A64"/>
<path d="M414.953 341.798L367.648 343.093L367.121 291.687C367.036 288.583 367.563 285.492 368.673 282.591C369.783 279.69 371.453 277.037 373.589 274.782C375.725 272.527 378.284 270.715 381.12 269.45C383.956 268.185 387.014 267.491 390.119 267.408C393.224 267.323 396.316 267.85 399.217 268.959C402.119 270.069 404.773 271.739 407.029 273.875C409.285 276.01 411.098 278.569 412.365 281.406C413.632 284.242 414.327 287.3 414.412 290.405L414.953 341.798Z" fill="#263238"/>
<path d="M401.824 317.561C405.185 317.177 409.998 314.941 414.953 324.183C419.909 333.424 429.464 353.232 429.464 353.232L438.962 342.438L446.253 348.334C446.253 348.334 435.317 364.923 432.17 368.056C429.678 370.534 426.716 370.904 423.483 366.746C419.681 361.919 407.691 342.438 407.691 342.438L401.824 317.561Z" fill="#FFA8A7"/>
<path d="M470.062 346.098C470.206 345.917 470.296 345.699 470.322 345.469C470.348 345.239 470.309 345.006 470.21 344.797C470.111 344.588 469.955 344.411 469.76 344.286C469.565 344.161 469.339 344.093 469.108 344.09C468.942 344.091 468.779 344.125 468.627 344.191C468.475 344.257 468.338 344.354 468.225 344.475C468.225 344.347 468.225 344.218 468.225 344.09C468.225 343.599 468.128 343.113 467.94 342.659C467.752 342.206 467.475 341.794 467.127 341.447C466.78 341.1 466.367 340.826 465.912 340.639C465.458 340.453 464.971 340.357 464.48 340.359C463.836 340.356 463.202 340.523 462.643 340.844C462.749 340.595 462.791 340.325 462.767 340.057C462.743 339.788 462.653 339.53 462.505 339.304C462.357 339.079 462.156 338.893 461.919 338.764C461.683 338.636 461.418 338.567 461.148 338.565C460.853 338.565 460.562 338.643 460.308 338.793C460.322 338.599 460.322 338.403 460.308 338.209C460.272 337.28 459.934 336.388 459.345 335.668C458.757 334.948 457.949 334.441 457.045 334.221C456.142 334.002 455.191 334.084 454.338 334.454C453.485 334.824 452.776 335.463 452.319 336.272C452.229 335.982 452.048 335.729 451.804 335.548C451.559 335.368 451.263 335.271 450.959 335.271C450.655 335.271 450.359 335.368 450.115 335.548C449.87 335.729 449.689 335.982 449.599 336.272C449.219 335.659 448.649 335.187 447.976 334.927C447.303 334.666 446.563 334.633 445.869 334.831C445.175 335.029 444.565 335.448 444.13 336.024C443.696 336.6 443.461 337.302 443.462 338.024C443.447 338.19 443.447 338.357 443.462 338.522C443.282 338.373 443.063 338.278 442.832 338.249C442.6 338.22 442.364 338.257 442.153 338.358C441.942 338.458 441.764 338.617 441.64 338.815C441.516 339.013 441.452 339.243 441.454 339.476C441.023 339.22 440.532 339.083 440.03 339.078C439.318 339.081 438.632 339.34 438.096 339.809C437.56 340.277 437.21 340.922 437.111 341.627C436.905 341.552 436.689 341.514 436.47 341.513C436.228 341.511 435.989 341.557 435.765 341.649C435.541 341.74 435.338 341.876 435.167 342.047C434.996 342.218 434.861 342.421 434.769 342.645C434.677 342.868 434.631 343.108 434.633 343.35C434.635 343.573 434.674 343.794 434.747 344.005C433.778 344.342 432.964 345.017 432.451 345.906C431.939 346.794 431.764 347.838 431.957 348.845C432.151 349.852 432.7 350.756 433.505 351.392C434.31 352.027 435.317 352.352 436.342 352.307L451.792 362.716L468.325 352.065C469.024 352.064 469.704 351.836 470.262 351.414C470.82 350.992 471.226 350.4 471.417 349.728C471.609 349.055 471.576 348.338 471.324 347.686C471.071 347.034 470.614 346.481 470.02 346.112L470.062 346.098Z" fill="#F5F5F5"/>
<path d="M455.808 358.131L455.267 390.271L458.642 388.334L459.738 355.852L455.808 358.131Z" fill="#FAFAFA"/>
<path d="M459.738 355.852L458.642 388.334L461.988 386.397L463.683 353.588L459.738 355.852Z" fill="#FFC100"/>
<path d="M452.946 359.783C452.623 359.959 452.26 360.048 451.892 360.039V391.865C452.258 391.872 452.619 391.789 452.946 391.623L455.267 390.271L455.808 358.131L452.946 359.783Z" fill="#FFC100"/>
<path d="M465.32 384.475L467.584 383.165C467.895 382.963 468.158 382.697 468.357 382.385C468.556 382.074 468.686 381.723 468.738 381.356L471.586 349.017L467.627 351.31L465.32 384.475Z" fill="#FFC100"/>
<path d="M463.683 353.588L461.988 386.397L465.32 384.475L467.627 351.31L463.683 353.588Z" fill="#FAFAFA"/>
<path d="M447.976 358.131L448.517 390.271L445.156 388.334L444.06 355.852L447.976 358.131Z" fill="#FFC100"/>
<path d="M444.06 355.852L445.156 388.334L441.81 386.397L440.116 353.588L444.06 355.852Z" fill="#E0E0E0"/>
<path d="M450.824 359.783C451.142 359.957 451.501 360.046 451.864 360.039V391.865C451.503 391.87 451.146 391.787 450.824 391.623L448.489 390.271L447.976 358.131L450.824 359.783Z" fill="#E0E0E0"/>
<path d="M438.478 384.475L436.214 383.165C435.902 382.964 435.636 382.699 435.434 382.387C435.233 382.075 435.101 381.724 435.046 381.356L432.198 349.017L436.171 351.31L438.478 384.475Z" fill="#E0E0E0"/>
<path d="M440.116 353.588L441.81 386.397L438.478 384.475L436.171 351.31L440.116 353.588Z" fill="#FFC100"/>
<path opacity="0.1" d="M447.976 358.131L448.517 390.271L445.156 388.334L444.06 355.852L447.976 358.131Z" fill="black"/>
<path opacity="0.1" d="M440.116 353.588L441.81 386.397L438.478 384.475L436.171 351.31L440.116 353.588Z" fill="black"/>
<path d="M451.066 352.634C450.875 352.897 450.624 353.111 450.335 353.26C450.045 353.408 449.725 353.486 449.4 353.489C448.897 353.501 448.407 353.327 448.025 353C447.643 352.673 447.395 352.217 447.33 351.718C447.264 351.219 447.386 350.714 447.671 350.299C447.956 349.885 448.384 349.59 448.873 349.473C448.611 349.817 448.471 350.237 448.474 350.669C448.478 351.21 448.696 351.728 449.08 352.11C449.464 352.491 449.984 352.705 450.525 352.705C450.708 352.711 450.891 352.687 451.066 352.634Z" fill="#E0E0E0"/>
<path d="M453.458 352.777C453.481 352.987 453.452 353.199 453.376 353.396C453.299 353.593 453.177 353.769 453.018 353.909C452.86 354.049 452.67 354.149 452.465 354.201C452.26 354.252 452.046 354.254 451.84 354.206C451.634 354.158 451.443 354.061 451.282 353.924C451.121 353.787 450.995 353.613 450.916 353.417C450.836 353.222 450.804 353.01 450.822 352.799C450.841 352.589 450.91 352.386 451.023 352.207C451.051 352.483 451.165 352.742 451.351 352.948C451.588 353.208 451.918 353.365 452.27 353.384C452.622 353.402 452.967 353.281 453.231 353.047C453.322 352.971 453.399 352.88 453.458 352.777Z" fill="#E0E0E0"/>
<path d="M445.313 343.093C445.546 343.455 445.659 343.881 445.636 344.31C445.614 344.74 445.457 345.151 445.188 345.487C444.918 345.822 444.551 346.064 444.136 346.179C443.722 346.294 443.282 346.276 442.878 346.127C442.458 345.969 442.102 345.677 441.865 345.295C441.628 344.914 441.524 344.466 441.568 344.019C441.803 344.379 442.148 344.653 442.551 344.802C442.801 344.898 443.068 344.944 443.336 344.937C443.605 344.929 443.869 344.869 444.113 344.759C444.358 344.649 444.579 344.492 444.763 344.297C444.947 344.101 445.09 343.871 445.185 343.62C445.248 343.45 445.291 343.273 445.313 343.093Z" fill="#E0E0E0"/>
<path d="M442.138 345.03C442.236 345.217 442.288 345.424 442.288 345.635C442.288 345.846 442.236 346.054 442.138 346.24C442.06 346.397 441.953 346.537 441.822 346.651C441.69 346.766 441.537 346.854 441.372 346.91C441.207 346.965 441.032 346.987 440.858 346.975C440.684 346.963 440.514 346.917 440.358 346.839C440.099 346.712 439.889 346.504 439.76 346.247C439.632 345.99 439.591 345.697 439.646 345.415C439.756 345.633 439.925 345.817 440.134 345.945C440.342 346.074 440.583 346.141 440.828 346.141C441.072 346.141 441.313 346.074 441.521 345.945C441.73 345.817 441.899 345.633 442.009 345.415C442.076 345.296 442.12 345.165 442.138 345.03Z" fill="#E0E0E0"/>
<path d="M463.312 347.992C463.332 348.319 463.273 348.647 463.14 348.947C463.007 349.246 462.803 349.51 462.547 349.715C462.291 349.92 461.99 350.06 461.668 350.125C461.347 350.189 461.014 350.176 460.699 350.085C460.384 349.995 460.095 349.83 459.857 349.604C459.618 349.379 459.438 349.1 459.33 348.79C459.221 348.48 459.189 348.149 459.236 347.825C459.282 347.5 459.405 347.191 459.596 346.924C459.628 347.357 459.792 347.769 460.066 348.106C460.41 348.516 460.901 348.775 461.434 348.826C461.967 348.876 462.499 348.715 462.914 348.376C463.065 348.269 463.199 348.139 463.312 347.992Z" fill="#E0E0E0"/>
<path d="M465.52 347.052C465.542 347.262 465.514 347.475 465.437 347.672C465.361 347.869 465.238 348.045 465.079 348.185C464.921 348.325 464.731 348.425 464.526 348.476C464.321 348.528 464.107 348.53 463.901 348.482C463.695 348.434 463.504 348.337 463.343 348.2C463.182 348.062 463.057 347.889 462.977 347.693C462.897 347.497 462.865 347.285 462.884 347.075C462.902 346.864 462.971 346.661 463.085 346.483C463.111 346.726 463.203 346.957 463.353 347.151C463.502 347.344 463.702 347.493 463.93 347.58C464.159 347.667 464.407 347.689 464.647 347.644C464.888 347.598 465.111 347.487 465.292 347.323C465.383 347.247 465.46 347.155 465.52 347.052Z" fill="#E0E0E0"/>
<path d="M459.752 344.802C460.009 344.924 460.219 345.125 460.353 345.375C460.487 345.625 460.537 345.912 460.495 346.192C460.454 346.473 460.323 346.733 460.123 346.934C459.923 347.135 459.663 347.266 459.382 347.308C459.095 347.357 458.8 347.309 458.542 347.173C458.285 347.036 458.08 346.819 457.958 346.554C458.209 346.679 458.494 346.719 458.77 346.668C458.942 346.64 459.106 346.579 459.254 346.487C459.402 346.395 459.53 346.275 459.631 346.133C459.731 345.991 459.803 345.83 459.841 345.661C459.879 345.491 459.883 345.315 459.852 345.144C459.843 345.024 459.809 344.908 459.752 344.802Z" fill="#E0E0E0"/>
<path d="M438.478 339.548C438.478 340.559 439.802 341.954 440.571 342.723C441.34 343.492 443.761 344.745 444.416 345.642C445.071 346.54 446.011 346.483 446.281 345.03C446.552 343.578 444.117 341.014 444.06 340.245C444.003 339.476 447.193 339.548 449.215 340.317C451.237 341.086 453.401 344.703 454.185 346.483C454.968 348.263 459.881 348.12 459.738 343.008C459.596 337.896 457.061 335.475 454.256 334.165C451.149 332.851 447.713 332.528 444.416 333.239C441.269 333.951 437.823 336.515 436.171 341.527C436.5 341.462 436.841 341.492 437.154 341.612C437.211 341.193 437.36 340.791 437.588 340.434C437.817 340.078 438.121 339.775 438.478 339.548Z" fill="#FFA8A7"/>
<path d="M345.69 332.499C350.062 330.904 374.284 320.523 382.486 320.68L383.369 340.829L357.31 352.663L345.69 332.499Z" fill="#E0E0E0"/>
<path d="M446.381 447.444C445.555 448.313 444.615 449.31 444.715 450.406C445.026 452.724 446.057 454.886 447.663 456.586C449.941 459.05 451.451 463.706 451.935 466.967C452.419 470.228 452.647 478.359 456.705 481.52C460.764 484.682 470.603 486.334 470.603 480.396C470.603 474.457 458.855 451.574 458.855 451.574L446.381 447.444Z" fill="#263238"/>
<path d="M451.835 451.26C453.477 455.428 454.805 459.711 455.808 464.076C456.805 468.847 458.215 472.208 460.65 473.489C463.085 474.771 466.716 474.543 465.349 471.296C463.982 468.049 458.784 451.602 458.784 451.602L451.835 451.26Z" fill="#F28F8F"/>
<path d="M420.393 370.021C420.393 370.021 439.731 378.864 449.129 383.92C458.528 388.975 467.485 393.888 469.35 397.974C471.33 402.246 470.774 412.528 469.792 422.382C468.809 432.236 466.602 449.936 466.602 449.936L439.062 408.64L411.393 390.356L420.393 370.021Z" fill="#FFC100"/>
<path opacity="0.1" d="M456.121 413.496C453.401 407.173 447.478 402.973 441.881 399.541C437.467 396.807 426.459 390.399 422.145 387.892C423.008 385.732 423.489 383.439 423.569 381.114C423.569 381.114 422.216 384.219 420.621 387.024L419.468 388.918L447.805 410.064L467.271 444.824C467.271 444.824 458.841 419.747 456.121 413.496Z" fill="black"/>
<path d="M468.952 480.837C468.154 481.364 468.268 483.329 468.339 484.781C468.41 486.234 467.385 488.114 469.478 490.335C471.572 492.556 475.103 492.756 478.022 495.803C480.942 498.851 485.271 504.447 493.131 504.86C500.991 505.273 506.388 501.827 507.442 499.335C508.496 496.843 506.901 494.906 501.59 492.898C495.894 490.762 494.356 490.136 494.356 490.136L468.952 480.837Z" fill="#263238"/>
<path d="M474.648 463.906C474.648 463.906 479.945 473.475 482.921 477.79C486.225 482.262 490.197 486.201 494.697 489.466C495.694 490.221 497.873 491.574 498.685 492.186C498.879 492.293 499.046 492.444 499.172 492.627C499.298 492.81 499.38 493.02 499.41 493.24C499.441 493.46 499.419 493.684 499.348 493.894C499.276 494.104 499.156 494.295 498.998 494.45C497.688 496.359 490.81 498.167 486.31 496.06C481.81 493.952 476.826 489.182 474.021 487.302C472.597 486.376 471.287 485.479 470.304 484.81C469.839 484.5 469.463 484.075 469.213 483.575C468.964 483.076 468.849 482.52 468.88 481.962C468.88 481.634 468.88 481.264 468.88 480.823C468.88 478.473 464.081 469.858 464.081 469.858L474.648 463.906Z" fill="#FFA8A7"/>
<path d="M377.602 380.943C377.687 388.804 378.072 393.19 382.201 400.367C386.331 407.544 396.441 412.072 408.246 416.031C418.072 419.334 432.454 424.048 435.388 424.66C438.321 425.272 438.848 426.81 439.517 431.894C440.187 436.978 443.59 444.795 451.265 453.895C456.842 460.647 462.047 467.696 466.858 475.013C466.858 475.013 474.875 475.013 477.937 469.673C477.937 469.673 455.623 416.985 452.049 410.947C448.474 404.909 419.496 388.847 419.496 388.847C419.496 388.847 419.98 377.953 420.365 370.021L377.602 380.943Z" fill="#FFC100"/>
<path d="M382.472 320.68L375.494 324.183C375.494 324.183 380.307 329.01 378.983 340.872C378.058 349.274 376.135 350 371.863 352.364C377.559 365.265 377.559 384.261 377.559 384.261C377.559 384.261 387.598 389.644 405.84 384.461C421.874 379.918 420.279 370.021 420.279 370.021L413.387 364.71L411.835 352.15C411.835 352.15 417.26 346.696 414.911 336.984C412.561 327.273 401.71 317.561 401.71 317.561H397.438L382.472 320.68Z" fill="#FAFAFA"/>
<path d="M417.816 377.597C409.656 380.644 397.88 380.16 392.326 377.597C384.523 373.994 381.262 364.097 381.902 357.789C382.956 347.494 382.088 340.53 379.624 334.151H379.083C379.287 336.383 379.258 338.631 378.997 340.858C378.072 349.259 376.149 349.986 371.877 352.349C377.217 364.938 377.573 384.247 377.573 384.247C377.573 384.247 387.613 389.63 405.854 384.446C411.037 383.022 415.21 380.701 417.716 377.583L417.816 377.597Z" fill="#F0F0F0"/>
<path d="M404.985 277.604C407.52 279.028 410.781 285.208 410.824 298.38C410.824 309.558 407.335 312.406 405.541 313.246C403.747 314.087 400.229 313.702 396.797 313.246L396.869 317.874C396.869 317.874 403.006 324.596 402.792 327.672C402.579 330.747 394.932 332.328 390.446 329.48C387.202 327.12 384.376 324.232 382.088 320.936L381.746 305.457C381.746 305.457 379.795 307.465 376.32 304.588C373.472 302.21 372.39 298.095 374.512 295.817C375.064 295.273 375.737 294.868 376.477 294.636C377.216 294.404 378 294.351 378.764 294.482C379.528 294.613 380.249 294.923 380.869 295.388C381.489 295.853 381.99 296.459 382.33 297.155C386.798 296.852 391.12 295.437 394.904 293.04C397.678 291.44 400.037 289.208 401.789 286.526C403.54 283.844 404.635 280.788 404.985 277.604Z" fill="#FFA8A7"/>
<path d="M398.293 295.916C398.312 296.103 398.295 296.293 398.241 296.473C398.187 296.653 398.098 296.821 397.979 296.967C397.859 297.112 397.712 297.233 397.546 297.322C397.38 297.41 397.198 297.465 397.011 297.483C396.822 297.496 396.632 297.472 396.452 297.411C396.272 297.35 396.106 297.253 395.964 297.127C395.822 297.001 395.707 296.848 395.625 296.677C395.543 296.505 395.496 296.32 395.487 296.13C395.473 295.943 395.496 295.755 395.555 295.577C395.613 295.399 395.707 295.234 395.829 295.092C396.076 294.805 396.427 294.627 396.805 294.599C397.182 294.571 397.556 294.694 397.843 294.941C398.13 295.188 398.307 295.539 398.335 295.916H398.293Z" fill="#263238"/>
<path d="M398.919 305.372L402.209 306.326C402.156 306.544 402.059 306.75 401.925 306.931C401.791 307.112 401.622 307.264 401.428 307.378C401.234 307.492 401.02 307.566 400.796 307.596C400.573 307.626 400.347 307.61 400.13 307.55C399.687 307.412 399.314 307.108 399.089 306.703C398.864 306.297 398.803 305.821 398.919 305.372Z" fill="#F28F8F"/>
<path d="M409.685 291.288L406.837 289.409C406.948 289.213 407.098 289.041 407.278 288.906C407.458 288.771 407.664 288.674 407.883 288.622C408.102 288.569 408.33 288.563 408.552 288.603C408.774 288.643 408.985 288.728 409.172 288.853C409.55 289.119 409.813 289.518 409.908 289.97C410.004 290.422 409.924 290.893 409.685 291.288Z" fill="#263238"/>
<path d="M409.115 294.606C409.129 294.887 409.059 295.165 408.915 295.406C408.77 295.647 408.558 295.84 408.304 295.961C408.051 296.081 407.767 296.124 407.489 296.084C407.211 296.044 406.951 295.923 406.742 295.735C406.533 295.548 406.384 295.303 406.314 295.031C406.244 294.759 406.255 294.472 406.348 294.207C406.44 293.942 406.609 293.71 406.832 293.54C407.056 293.37 407.325 293.271 407.606 293.253C407.794 293.242 407.982 293.268 408.161 293.33C408.339 293.392 408.503 293.488 408.643 293.614C408.783 293.74 408.898 293.893 408.979 294.063C409.06 294.233 409.106 294.418 409.115 294.606Z" fill="#263238"/>
<path d="M402.764 293.282L402.935 302.424L407.335 300.929L402.764 293.282Z" fill="#F28F8F"/>
<path d="M396.797 313.232C393.209 312.862 385.761 310.94 384.523 308.049C385.029 309.513 385.967 310.789 387.214 311.708C389.478 313.531 396.869 315.468 396.869 315.468L396.797 313.232Z" fill="#F28F8F"/>
<path d="M396.869 317.86V315.468C396.869 315.468 402.679 314.428 405.74 315.468C408.539 316.473 411.134 317.973 413.401 319.896C415.085 321.948 416.055 324.493 416.164 327.145C416.093 330.391 412.974 331.516 408.773 328.882C406.509 327.458 405.64 324.724 404.145 323.314C401.351 322.049 398.867 320.188 396.869 317.86Z" fill="#B16668"/>
<path d="M375.509 324.183C369.172 327.102 365.341 328.967 363.276 338.423C361.212 347.878 352.896 393.033 352.896 393.033L362.75 396.18C362.75 396.18 369.998 373.781 372.048 366.276C374.099 358.772 378.115 347.508 378.997 340.858C379.88 334.208 380.592 329.622 375.509 324.183Z" fill="#FFA8A7"/>
<path d="M373.173 515.141H383.91V496.771H373.173V515.141Z" fill="#B16668"/>
<path d="M402.137 500.104L412.86 500.474L413.401 481.036L402.679 480.666L402.137 500.104Z" fill="#B16668"/>
<path d="M383.896 510.328V508.42C385.021 508.918 390.09 519.641 394.718 523.87C398.392 527.217 404.872 531.816 404.686 534.992C404.473 539.107 398.62 540.93 393.565 539.734C389.62 538.808 383.981 536.416 381.276 533.496C378.57 530.577 377.702 526.747 376.278 524.839C374.854 522.93 371.621 520.794 370.852 518.573C370.439 517.363 370.938 514.7 371.521 512.464C372.105 510.228 372.646 508.121 373.358 508.32V509.587C375.015 510.897 377.071 511.596 379.183 511.567C380.934 511.61 383.896 511.624 383.896 510.328Z" fill="#263238"/>
<path d="M412.974 497.17C413.529 497.17 413.985 497.968 415.21 499.306C417.387 501.135 419.813 502.645 422.415 503.792C426.431 505.8 436.954 508.505 440.486 510.086C442.693 511.083 442.138 514.515 439.062 516.437C436.726 517.861 429.293 519.285 422.686 517.79C419.069 516.978 413.586 514.486 410.909 514.059C407.962 513.603 402.55 513.034 400.357 511.524C398.164 510.015 399.047 506.782 399.66 504.005C400.343 500.987 401.312 496.344 402.308 496.558V497.512C403.604 499.463 410.169 500.26 413.003 498.822L412.974 497.17Z" fill="#263238"/>
<path d="M319.09 411.445C322.023 424.945 331.165 432.805 347.669 439.384C360.784 444.568 373.188 448.968 373.188 448.968C371.604 455.796 370.782 462.778 370.738 469.787C370.639 480.253 372.632 503.436 372.632 503.436C372.632 503.436 379.752 506.44 384.651 503.322C384.651 503.322 387.299 485.351 389.321 472.25C392.468 451.816 394.69 441.52 393.764 437.676C393.195 435.269 384.679 429.274 377.189 424.148L399.475 434.372C399.031 438.867 398.841 443.383 398.905 447.9C399.275 462.14 402.137 490.093 402.137 490.093C402.137 490.093 409.941 493.582 413.814 490.563C413.814 490.563 422.828 423.991 421.219 419.164C419.339 413.468 413.23 411.289 383.227 398.516C376.306 395.554 365.954 392.136 365.954 392.136L319.09 411.445Z" fill="#FFC100"/>
<path opacity="0.1" d="M319.09 411.445C322.023 424.945 331.165 432.805 347.669 439.384C360.784 444.568 373.188 448.968 373.188 448.968C371.604 455.796 370.782 462.778 370.738 469.787C370.639 480.253 372.632 503.436 372.632 503.436C372.632 503.436 379.752 506.44 384.651 503.322C384.651 503.322 387.299 485.351 389.321 472.25C392.468 451.816 394.69 441.52 393.764 437.676C393.195 435.269 384.679 429.274 377.189 424.148L399.475 434.372C399.031 438.867 398.841 443.383 398.905 447.9C399.275 462.14 402.137 490.093 402.137 490.093C402.137 490.093 409.941 493.582 413.814 490.563C413.814 490.563 422.828 423.991 421.219 419.164C419.339 413.468 413.23 411.289 383.227 398.516C376.306 395.554 365.954 392.136 365.954 392.136L319.09 411.445Z" fill="black"/>
<path d="M320.044 337.298C316.846 342.508 315.114 348.486 315.031 354.599L313.052 375.561C314.006 392.549 314.903 399.427 317.851 411.588C325.469 419.876 357.495 410.278 365.954 392.193C365.954 392.193 361.881 368.498 361.098 352.321C360.542 340.844 356.683 332.712 345.69 332.47L331.592 334.407L320.044 337.298Z" fill="#F5F5F5"/>
<path d="M361.331 311.994C367.359 305.966 367.359 296.192 361.331 290.164C355.302 284.136 345.529 284.136 339.501 290.164C333.472 296.192 333.472 305.966 339.501 311.994C345.529 318.022 355.302 318.023 361.331 311.994Z" fill="#263238"/>
<path d="M325.17 310.299C325.17 310.299 327.534 321.406 328.488 323.243C329.108 324.354 330.126 325.188 331.336 325.578L331.18 317.76L325.17 310.299Z" fill="#263238"/>
<path d="M328.146 294.364C327.318 294.267 326.478 294.36 325.691 294.636C324.903 294.913 324.19 295.365 323.604 295.959C321.653 297.953 322.749 304.19 325.17 310.299L329.627 310.797L328.146 294.364Z" fill="#263238"/>
<path d="M330.966 310.811C330.069 311.338 328.801 309.629 327.691 308.476C326.58 307.323 322.992 305.742 321.197 309.53C319.403 313.318 322.778 318.472 325.612 319.355C330.496 320.893 331.236 317.76 331.236 317.76L331.607 335.375C335.879 340.075 350.204 338.95 347.499 334.905V329.551C349.673 329.898 351.879 330.013 354.077 329.893C357.666 329.338 359.93 326.504 361.012 322.616C362.764 316.365 363.433 311.324 361.952 299.049C360.315 285.592 344.665 285.45 336.206 290.776C327.748 296.101 330.966 310.811 330.966 310.811Z" fill="#B16668"/>
<path d="M330.966 312.307C330.524 312.307 328.816 309.459 327.691 308.476C326.153 307.052 328.146 294.364 328.146 294.364C327.736 293.271 327.651 292.082 327.904 290.941C328.157 289.801 328.736 288.759 329.57 287.942C331.692 285.607 335.266 285.35 341.247 284.41C344.408 283.912 349.207 282.986 352.354 282.431C356.128 281.733 359.247 281.007 361.909 283.3C362.954 284.207 363.693 285.415 364.025 286.758C364.356 288.102 364.264 289.515 363.761 290.804C362.988 292.4 361.632 293.639 359.973 294.264C359.973 294.264 358.335 295.688 352.611 296.415C347.33 296.814 342.023 296.714 336.762 296.116C335.11 295.888 334.754 297.54 333.914 301.897C333.13 305.742 332.475 312.278 330.966 312.307Z" fill="#263238"/>
<path d="M328.146 295.304L322.749 292.456C322.917 292.088 323.157 291.757 323.456 291.484C323.755 291.212 324.106 291.002 324.488 290.869C324.87 290.736 325.275 290.682 325.679 290.71C326.083 290.738 326.476 290.847 326.836 291.032C327.565 291.436 328.109 292.107 328.354 292.904C328.598 293.7 328.524 294.561 328.146 295.304Z" fill="#263238"/>
<path d="M347.484 329.551C347.484 329.551 339.467 327.928 336.662 326.447C335.017 325.586 333.668 324.252 332.789 322.616C333.211 324.252 333.957 325.787 334.982 327.13C337.032 329.751 347.484 331.687 347.484 331.687V329.551Z" fill="#9A4A4D"/>
<path d="M345.548 308.804C345.533 309.122 345.424 309.429 345.235 309.685C345.046 309.942 344.785 310.136 344.485 310.244C344.185 310.352 343.86 310.369 343.551 310.291C343.242 310.214 342.962 310.047 342.748 309.811C342.534 309.575 342.395 309.281 342.348 308.965C342.302 308.65 342.35 308.328 342.487 308.04C342.623 307.752 342.842 307.511 343.116 307.348C343.39 307.185 343.706 307.107 344.024 307.123C344.444 307.156 344.837 307.348 345.12 307.66C345.403 307.973 345.556 308.382 345.548 308.804Z" fill="#263238"/>
<path d="M342.97 302.153L339.538 304.047C339.295 303.576 339.242 303.03 339.39 302.521C339.539 302.012 339.877 301.579 340.336 301.313C340.563 301.189 340.812 301.112 341.07 301.087C341.327 301.062 341.587 301.09 341.833 301.168C342.08 301.247 342.307 301.375 342.503 301.544C342.698 301.713 342.857 301.921 342.97 302.153Z" fill="#263238"/>
<path d="M346.758 319.896L350.418 321.32C350.338 321.566 350.209 321.794 350.039 321.989C349.869 322.184 349.662 322.343 349.429 322.456C349.197 322.569 348.943 322.634 348.685 322.647C348.427 322.66 348.168 322.62 347.926 322.531C347.676 322.435 347.448 322.29 347.254 322.106C347.06 321.921 346.904 321.7 346.796 321.456C346.687 321.211 346.628 320.947 346.622 320.68C346.615 320.412 346.662 320.146 346.758 319.896Z" fill="#9A4A4D"/>
<path d="M360.286 303.563L357.153 301.157C357.3 300.946 357.489 300.767 357.707 300.63C357.925 300.494 358.168 300.403 358.422 300.363C358.676 300.323 358.936 300.335 359.185 300.398C359.434 300.461 359.668 300.574 359.873 300.729C360.292 301.059 360.568 301.537 360.645 302.064C360.722 302.591 360.594 303.128 360.286 303.563Z" fill="#263238"/>
<path d="M358.919 308.348C358.905 308.663 358.799 308.967 358.614 309.222C358.429 309.477 358.173 309.672 357.878 309.783C357.583 309.894 357.262 309.916 356.955 309.846C356.647 309.776 356.367 309.617 356.149 309.39C355.931 309.162 355.785 308.875 355.728 308.565C355.672 308.255 355.708 307.935 355.831 307.646C355.955 307.356 356.161 307.108 356.424 306.935C356.687 306.761 356.995 306.668 357.31 306.668C357.744 306.682 358.156 306.866 358.456 307.18C358.757 307.494 358.923 307.913 358.919 308.348Z" fill="#263238"/>
<path d="M350.973 307.052L351.158 316.792L356.925 315.525L350.973 307.052Z" fill="#9A4A4D"/>
<path opacity="0.15" d="M377.189 424.148L364.302 417.241C364.302 417.241 369.556 413.453 370.254 408.526C370.254 408.526 370.567 414.578 368.289 417.241L396.242 432.905L377.189 424.148Z" fill="black"/>
<path d="M334.569 513.646V454.422C334.449 452.283 333.829 450.202 332.758 448.347C331.687 446.492 330.195 444.914 328.403 443.742L265.149 407.23L260.307 370.861C259.893 368.706 259.049 366.656 257.825 364.833C256.602 363.011 255.025 361.453 253.187 360.253L248.175 357.405C244.771 355.454 242.009 357.049 242.009 360.965V460.274C242.126 462.414 242.745 464.495 243.816 466.351C244.887 468.206 246.38 469.783 248.175 470.954L328.36 517.206C331.792 519.171 334.569 517.562 334.569 513.646Z" fill="#263238"/>
<path d="M351.913 444.397V503.635C351.92 503.768 351.92 503.901 351.913 504.034C351.731 506.09 351.088 508.08 350.033 509.854C348.978 511.629 347.538 513.144 345.818 514.287L340.806 517.135C340.658 517.232 340.501 517.313 340.336 517.377C340.253 517.425 340.168 517.468 340.08 517.505H340.008C339.846 517.577 339.68 517.639 339.51 517.69C336.594 518.757 333.41 518.847 330.439 517.946C330.075 517.837 329.718 517.704 329.371 517.548C332.333 518.772 334.626 517.106 334.64 513.56V454.422C334.521 452.283 333.901 450.202 332.83 448.347C331.759 446.492 330.267 444.914 328.474 443.742L317.281 437.277L265.22 407.23L276.412 400.765C278.326 399.804 280.437 399.303 282.578 399.303C284.72 399.303 286.831 399.804 288.744 400.765L334.64 427.266L345.818 433.717C347.598 434.896 349.077 436.477 350.136 438.332C351.194 440.187 351.803 442.264 351.913 444.397Z" fill="#455A64"/>
<path d="M334.569 454.422V513.646C334.569 517.192 332.262 518.858 329.3 517.633C329.647 517.789 330.003 517.923 330.368 518.032C333.339 518.933 336.523 518.843 339.439 517.776C339.609 517.724 339.775 517.662 339.937 517.59H340.008C340.096 517.553 340.182 517.511 340.265 517.462C340.429 517.399 340.587 517.317 340.735 517.22L345.747 514.372C347.467 513.229 348.907 511.715 349.962 509.94C351.017 508.165 351.659 506.176 351.842 504.119C351.849 503.987 351.849 503.853 351.842 503.721V444.397C351.768 442.253 351.145 440.165 350.033 438.331L332.689 448.299C333.827 450.146 334.474 452.254 334.569 454.422Z" fill="#37474F"/>
<path d="M315.402 342.438C310.916 344.033 298 371.417 295.209 376.771C292.418 382.125 285.042 398.658 286.48 405.322C287.918 411.987 316.27 426.056 319.09 428.861C322.465 432.25 323.362 433.888 328.417 434.415C332.547 434.856 333.743 438.088 337.701 439.797C341.66 441.506 348.552 438.53 345.491 432.891C341.888 426.227 338.926 424.76 335.637 423.407C331.066 421.527 328.303 421.371 325.17 419.434C322.037 417.497 303.711 400.11 303.711 400.11L313.052 381.897C313.052 381.897 318.748 368.341 319.218 357.96C319.688 347.579 315.402 342.438 315.402 342.438Z" fill="#B16668"/>
<path d="M320.044 337.298C311.5 340.416 307.085 348.989 302.244 358.658C297.402 368.327 293.016 378.75 293.016 378.75C297.795 383.67 303.916 387.072 310.617 388.533L319.816 371.047C319.816 371.047 329.627 351.894 320.044 337.298Z" fill="#E0E0E0"/>
</g>
<defs>
<clipPath id="clip0_12_12">
<rect width="572" height="600" fill="white"/>
</clipPath>
</defs>
</svg>
