<svg width="212" height="323" viewBox="0 0 212 323" fill="none" xmlns="http://www.w3.org/2000/svg">
<path d="M149.973 8.90387C154.043 11.8483 157.086 15.3521 159.32 19.7839C160.867 22.8529 161.356 25.8949 161.504 29.1839C161.75 34.6073 161.421 39.9955 158.9 44.8449C156.352 49.7474 153.722 54.7445 150.273 59.009C145.382 65.056 139.991 70.7757 134.284 76.0632C129.198 80.7748 123.501 84.8599 117.87 88.9398C113.126 92.3769 108.185 95.5716 103.15 98.5687C99.2245 100.905 95.0388 102.81 90.9353 104.838C86.2195 107.17 81.5656 109.668 76.7069 111.66C69.335 114.682 61.8221 117.365 54.3453 120.127C49.0785 122.073 43.7733 123.915 38.482 125.795C37.8438 126.021 37.1964 126.242 36.5354 126.381C33.3657 127.048 33.1702 129.158 33.2439 131.969C33.4572 140.109 33.3012 148.258 33.3261 156.404C33.3286 157.215 33.6559 158.022 33.6947 158.837C33.7662 160.336 33.6794 161.842 33.7604 163.34C33.8686 165.341 34.0636 167.337 34.2417 169.334C34.3346 170.375 34.4901 171.411 34.5835 172.452C34.7379 174.172 34.8511 175.896 35.0065 177.615C35.2632 180.454 35.4478 183.304 35.8336 186.126C36.2272 189.006 36.8232 191.857 37.3369 194.72C37.9588 198.185 38.5037 201.667 39.2408 205.108C39.7869 207.657 40.4967 210.18 41.294 212.664C42.5643 216.62 43.968 220.534 45.4453 224.844C42.0762 225.8 38.461 226.594 35.0173 227.856C29.9736 229.704 24.8311 230.322 19.5076 230.174C16.9014 230.101 14.666 229.035 13.635 226.941C12.1467 223.917 11.3067 220.559 10.3401 217.299C9.37151 214.032 8.5379 210.723 7.73859 207.41C7.17298 205.065 6.71464 202.692 6.29391 200.316C5.47916 195.716 4.64229 191.117 3.97016 186.495C3.3841 182.464 3.03959 178.4 2.53607 174.357C2.17292 171.441 1.71257 168.537 1.32158 165.624C1.22864 164.932 1.25545 164.224 1.19981 163.526C1.0686 161.879 0.895655 160.235 0.785801 158.587C0.622528 156.138 0.404804 153.687 0.374489 151.234C0.20725 137.707 0.00522228 124.179 5.16029e-06 110.651C-0.00189914 105.717 0.523738 100.784 0.773424 95.8484C0.943159 92.4932 0.93696 89.125 1.22834 85.7818C1.41713 83.6156 2.03594 81.4897 2.39693 79.3349C2.73675 77.3063 2.98318 75.2623 3.28497 73.2273C3.7818 69.877 4.29637 66.5294 4.7907 63.1788C5.00237 61.7442 5.09459 60.2863 5.39346 58.8711C6.13008 55.3832 6.95573 51.9141 7.74402 48.437C8.38631 45.604 8.94862 42.7502 9.68521 39.9419C10.851 35.4974 12.1171 31.0788 13.3698 26.6574C14.7737 21.7026 16.089 16.7178 17.6771 11.822C18.632 8.87799 19.7312 5.89802 21.3091 3.25894C23.4245 -0.279274 27.2232 -0.195659 30.7499 0.168405C33.4417 0.446289 36.089 1.21479 38.7369 1.84588C43.2817 2.9291 47.8231 4.01401 51.6264 6.99888C55.6429 10.1511 54.9247 10.4983 53.6619 14.8691C53.2455 16.3106 52.868 17.7639 52.4214 19.1957C51.9907 20.5765 51.4937 21.9366 50.9895 23.4123C54.738 21.8496 58.1715 20.3159 61.6804 18.9799C66.7252 17.0592 71.8039 15.2217 76.9081 13.4649C80.5188 12.2222 84.1797 11.1163 87.8489 10.0558C90.1686 9.38535 92.5686 8.99311 94.8895 8.32612C97.4486 7.59066 99.9183 6.51918 102.499 5.89132C106.036 5.03095 109.707 4.68405 113.201 3.69418C118.141 2.29459 123.147 2.52083 128.142 2.60678C130.801 2.65254 133.459 3.25804 136.1 3.71452C137.908 4.02711 139.766 4.31234 141.458 4.97585C144.319 6.09736 147.065 7.50875 149.973 8.90387ZM75.3998 75.166C77.9428 73.6915 80.5663 72.3384 83.0129 70.7185C88.9807 66.7669 95.0738 62.9597 100.727 58.5909C106.365 54.234 111.617 49.3591 116.854 44.5112C118.658 42.841 119.904 40.5684 121.64 38.2576C120.297 37.9944 119.449 37.7805 118.589 37.6675C113.391 36.9853 108.195 37.2085 103.143 38.4908C98.94 39.5575 94.8383 41.0542 90.7432 42.5055C85.714 44.2878 80.6083 45.9389 75.7749 48.1658C70.6448 50.5295 65.7813 53.4765 60.8264 56.214C54.0253 59.9714 47.52 64.1425 42.1358 69.8481C39.7595 72.3663 38.0332 75.108 37.8939 78.7676C37.7989 81.2637 37.0486 83.7276 36.7842 86.2263C36.4883 89.0218 36.4102 91.8403 36.2276 94.8064C37.3642 94.4893 38.1356 94.3958 38.7928 94.0711C43.4625 91.764 48.1329 89.4559 52.7573 87.0598C60.2338 83.1858 67.6752 79.2441 75.3998 75.166Z" fill="#FEC700"/>
<path d="M86.9081 289.884C85.5275 285.277 84.2474 280.805 83.0042 276.322C81.6294 271.365 80.1852 266.424 78.9641 261.429C77.9259 257.182 77.196 252.861 76.2656 248.587C75.5101 245.117 74.6135 241.677 73.8727 238.203C73.5582 236.729 73.5648 235.187 73.2771 233.705C72.8951 231.737 72.3426 229.803 71.9122 227.843C71.6205 226.515 71.3666 225.176 71.1758 223.83C70.4583 218.769 69.816 213.698 69.0647 208.642C68.317 203.611 67.3998 198.604 66.7004 193.566C66.3535 191.068 66.387 188.519 66.1453 186.003C65.7276 181.656 65.1849 177.319 64.7906 172.97C64.6619 171.551 64.912 170.102 64.8513 168.673C64.6004 162.771 64.1849 156.873 64.0672 150.969C64.0196 148.588 64.8495 146.191 64.813 143.808C64.7199 137.736 65.774 131.886 68.1245 126.347C68.7437 124.888 70.4729 123.744 71.9249 122.821C76.978 119.609 82.4239 117.547 88.5569 117.962C90.2898 118.08 92.0406 118.155 93.7411 118.474C96.3098 118.955 97.3335 120.332 97.3354 124.094C97.3374 127.692 96.8075 131.288 96.6149 134.89C96.5662 135.801 96.9122 136.733 97.1481 138.056C103.661 130.124 111.29 124.454 119.267 119.247C124.367 115.917 129.499 112.531 134.973 109.911C139.622 107.686 144.756 106.444 149.718 104.906C158.296 102.248 167.167 102.637 175.957 102.884C179.701 102.99 183.436 104.137 187.135 104.984C191.708 106.03 195.748 108.313 199.703 110.756C205.738 114.486 209.195 120.158 211.42 126.641C212.032 128.424 211.976 130.493 211.952 132.428C211.888 137.751 212.351 143.202 211.362 148.364C210.021 155.36 208.165 162.354 204.122 168.494C201.872 171.912 200.12 175.677 197.703 178.961C194.328 183.548 190.615 187.894 186.915 192.231C181.015 199.148 173.94 204.812 166.716 210.228C161.689 213.998 156.157 217.089 150.967 220.651C143.771 225.59 135.981 229.371 127.95 232.663C124.565 234.05 120.981 234.949 117.492 236.086C115.05 236.881 112.624 237.725 110.174 238.496C109.757 238.628 109.258 238.48 108.799 238.502C107.236 238.577 106.606 239.604 106.98 241.107C107.776 244.307 108.394 247.552 109.223 250.744C110.183 254.438 111.356 258.077 112.312 261.773C113.065 264.679 113.495 267.671 114.315 270.556C115.16 273.531 116.368 276.401 117.303 279.354C120.223 288.582 123.557 297.644 127.633 306.433C129 309.38 129.61 312.603 127.101 315.144C123.618 318.67 119.145 320.62 114.299 321.566C111.455 322.12 108.559 322.787 105.693 322.759C100.655 322.71 99.1052 322.075 96.9098 316.778C95.0807 312.365 93.0534 308.028 91.3987 303.552C89.7557 299.108 88.4683 294.532 86.9081 289.884ZM152.139 134.172C147.693 136.088 143.088 137.708 138.843 139.997C133.75 142.742 128.86 145.903 124.08 149.174C119.964 151.99 115.923 154.987 112.225 158.32C108.63 161.559 105.477 165.297 102.198 168.878C100.33 170.918 99.3338 173.339 99.5002 176.18C99.6908 179.435 99.7654 182.697 99.9954 185.948C100.205 188.91 100.239 191.936 100.92 194.799C101.835 198.647 103.417 202.331 104.461 206.154C104.865 207.636 105.332 207.709 106.569 207.241C114.887 204.094 123.015 200.554 130.66 195.973C133.876 194.046 137.296 192.393 140.279 190.156C147.549 184.705 154.929 179.333 161.679 173.277C168.23 167.398 174.359 160.978 178.747 153.155C180.556 149.931 182.418 146.571 182.332 142.938C182.235 138.795 179.837 135.512 176.254 133.177C172.885 130.982 169.173 130.904 165.399 131.122C163.21 131.248 160.986 131.364 158.862 131.854C156.675 132.358 154.591 133.31 152.139 134.172Z" fill="#FEC700"/>
</svg>
