<svg width="347" height="101" viewBox="0 0 347 101" fill="none" xmlns="http://www.w3.org/2000/svg">
<rect width="347" height="101" fill="black"/>
<path d="M91 63C91 76.2548 80.2548 87 67 87C53.7452 87 43 76.2548 43 63C43 49.7452 53.7452 39 67 39C80.2548 39 91 49.7452 91 63Z" fill="url(#paint0_linear_2023_6)"/>
<path d="M48 82.4778V37H67.1718C73.0527 37 77.3458 38.2438 80.051 40.7315C82.7563 43.1803 84.1089 46.4843 84.1089 50.6433C84.1089 54.8024 82.7563 58.1258 80.051 60.6135C77.385 63.1011 73.0919 64.345 67.1718 64.345H57.7623V82.4778H48ZM57.7623 56.9986H65.7016C68.3676 56.9986 70.4455 56.5516 71.9354 55.6576C73.4644 54.7247 74.2289 53.0727 74.2289 50.7016C74.2289 48.3694 73.4644 46.7369 71.9354 45.804C70.4455 44.8323 68.3676 44.3464 65.7016 44.3464H57.7623V56.9986Z" fill="#FEC700"/>
<path d="M59.8911 91.6977V46.2199H79.0629C84.9439 46.2199 89.2369 47.4637 91.9422 49.9514C94.6474 52.4002 96 55.7041 96 59.8632C96 64.0223 94.6474 67.3457 91.9422 69.8334C89.2761 72.321 84.9831 73.5649 79.0629 73.5649H69.6535V91.6977H59.8911ZM69.6535 66.2185H77.5927C80.2587 66.2185 82.3367 65.7715 83.8265 64.8774C85.3555 63.9446 86.12 62.2926 86.12 59.9215C86.12 57.5893 85.3555 55.9568 83.8265 55.0239C82.3367 54.0522 80.2587 53.5663 77.5927 53.5663H69.6535V66.2185Z" fill="#00033D"/>
<path d="M58.9514 57.0071H69.8605V58.0796H58.9514V57.0071Z" fill="#FEC700"/>
<path d="M66.5878 57.0071L67.4996 56.9393L68.3179 56.839L69.1115 56.6951L69.8605 56.5123V57.0071H66.5878Z" fill="#FEC700"/>
<path d="M59.5224 63.441L69.6729 63.462V64.2664H59.5224V63.441Z" fill="#FEC700"/>
<path d="M58.9514 63.4421L68.7696 63.4693L68.7312 64.3477H58.9514V63.4421Z" fill="#FEC700"/>
<path d="M58.9514 62.3696L68.7696 62.4018L68.7312 63.4421H58.9514V62.3696Z" fill="#FEC700"/>
<path d="M68.6472 63.4265L69.8707 63.3194L69.9547 64.2462L68.7312 64.3534L68.6472 63.4265Z" fill="#FEC700"/>
<path d="M58.9514 58.0796H69.8605V63.7845L64.4059 63.9783L58.9514 63.9197V58.0796Z" fill="#FEC700"/>
<defs>
<linearGradient id="paint0_linear_2023_6" x1="51.0116" y1="38.9081" x2="96.8218" y2="84.5294" gradientUnits="userSpaceOnUse">
<stop offset="0.345" stop-color="white"/>
<stop offset="1" stop-color="#D9D9D9"/>
</linearGradient>
</defs>
</svg>
